<svg xmlns="http://www.w3.org/2000/svg" width="46" height="46" viewBox="0 0 46 46" fill="none">
  <path d="M7.21826 29.897V28.0493L11.7729 23.1724C12.4246 22.4132 12.8901 21.7759 13.1694 21.2603C13.4487 20.7446 13.5884 20.2612 13.5884 19.8101C13.5884 19.2013 13.4272 18.7144 13.105 18.3491C12.7827 17.9767 12.3136 17.7905 11.6978 17.7905C11.089 17.7905 10.6128 18.0054 10.269 18.4351C9.93245 18.8647 9.76416 19.4591 9.76416 20.2183H7.01416L6.99268 20.1646C6.96403 18.8612 7.38656 17.7798 8.26025 16.9204C9.14111 16.0539 10.3084 15.6206 11.7622 15.6206C13.216 15.6206 14.3547 15.993 15.1782 16.7378C16.009 17.4826 16.4243 18.4924 16.4243 19.7671C16.4243 20.5763 16.2131 21.3247 15.7905 22.0122C15.368 22.6997 14.5731 23.6737 13.4058 24.9341L10.9028 27.6733L10.9243 27.7163H16.8433L16.8325 29.897H7.21826ZM24.9751 29.8862H22.1499V18.3062H19.2925V16.3081L24.9751 15.814V29.8862ZM35.7173 18.0698V21.8833H39.1978V24.311H35.7173V28.3179H33.0425V24.311H29.5405V21.8833H33.0425V18.0698H35.7173Z" fill="#2E78B4"/>
  <circle cx="23" cy="23" r="21.5" stroke="#2E78B4" stroke-width="3"/>
</svg>