<svg width="46" height="55" viewBox="0 0 46 55" fill="none" xmlns="http://www.w3.org/2000/svg">
<path d="M45.8708 42.9697L36.365 6.92804C36.1 5.9236 35.4598 5.08235 34.5622 4.55954C33.6646 4.03646 32.6166 3.8948 31.6127 4.15937L30.9675 4.32955L30.515 2.58433C30.2028 1.40074 29.6284 0.609262 28.8076 0.232203C28.0022 -0.137859 27.0571 -0.0652456 25.9996 0.447534L4.4594 10.8569C2.81571 11.654 1.96072 13.5144 2.42663 15.2806L11.9336 51.3273H11.9338L12.0799 51.8819C12.3449 52.8862 12.9852 53.7275 13.8826 54.2503C14.485 54.6012 15.1549 54.7807 15.8339 54.7807C16.1667 54.7807 16.5018 54.7376 16.8322 54.6506L43.1021 47.7221C45.1757 47.175 46.4178 45.0431 45.8708 42.9697ZM26.7763 2.05162C27.0524 1.91788 27.4071 1.78427 27.7226 1.78427C27.8443 1.78427 27.9604 1.80408 28.0636 1.85174C28.454 2.03089 28.6751 2.59635 28.7923 3.04034L29.244 4.78411L17.0288 8.00575L11.3641 9.49972L26.7763 2.05162ZM42.6476 45.9984L16.3777 52.9269C15.8336 53.0706 15.2663 52.9934 14.7799 52.7102C14.2938 52.4269 13.9469 51.9712 13.8035 51.427L13.6573 50.8725L4.29767 15.3855C4.15416 14.8413 4.231 14.2738 4.51445 13.7875C4.79778 13.3013 5.25352 12.9544 5.79759 12.811L32.0674 5.88254C32.2463 5.83528 32.4278 5.81191 32.6083 5.81191C32.976 5.81191 33.3387 5.90921 33.6652 6.09933C34.1514 6.38252 34.4983 6.8384 34.6417 7.38246L44.1474 43.4241C44.4436 44.5473 43.7708 45.7022 42.6476 45.9984Z" fill="#2E78B4"/>
<path d="M22.9383 34.3307C23.7997 34.3307 24.6667 34.2153 25.5201 33.9821C25.6934 33.9348 25.8638 33.8821 26.0322 33.8261C26.0603 33.8168 26.0878 33.8059 26.1157 33.7962C26.2602 33.7467 26.403 33.6945 26.5438 33.6388C26.5599 33.6325 26.5757 33.6253 26.5917 33.619C26.7459 33.5569 26.8976 33.4913 27.047 33.4221C27.0503 33.4206 27.0538 33.419 27.0569 33.4174C27.3851 33.265 27.7015 33.0955 28.0059 32.9103C28.0066 32.9098 28.0074 32.9094 28.008 32.909C30.0503 31.6665 31.5406 29.7203 32.2402 27.4891C32.2527 27.4499 32.2653 27.4109 32.2771 27.3714C32.3017 27.2895 32.3248 27.2073 32.3472 27.1246C32.361 27.0737 32.3742 27.0228 32.3873 26.9716C32.4073 26.8923 32.4274 26.8132 32.4455 26.7333C32.4596 26.6713 32.4718 26.6088 32.4848 26.5464C32.5099 26.4248 32.5327 26.3027 32.5533 26.18C32.5652 26.109 32.5772 26.0379 32.5875 25.9665C32.5973 25.8984 32.606 25.8303 32.6143 25.7619C32.6234 25.6864 32.6318 25.6106 32.6392 25.5348C32.6454 25.4716 32.652 25.4086 32.657 25.3451C32.6662 25.2269 32.6734 25.1086 32.6782 24.9899C32.6805 24.9377 32.6814 24.8852 32.6827 24.8328C32.6855 24.728 32.6868 24.623 32.686 24.5178C32.6856 24.4636 32.6842 24.4093 32.683 24.355C32.6806 24.2593 32.6768 24.1635 32.6716 24.0674C32.6689 24.0172 32.6666 23.967 32.663 23.9167C32.6533 23.7751 32.6411 23.633 32.6249 23.4908C32.6231 23.4762 32.6207 23.4614 32.619 23.4469C32.6032 23.3154 32.5845 23.1839 32.5634 23.0522C32.556 23.0066 32.5477 22.961 32.5396 22.9153C32.521 22.809 32.5004 22.703 32.4781 22.5968C32.469 22.5528 32.4599 22.5087 32.4501 22.4647C32.4174 22.3188 32.3821 22.1728 32.3424 22.0271C32.3026 21.8816 32.2587 21.7382 32.2129 21.5961C32.1991 21.5539 32.1846 21.512 32.1705 21.4701C32.1352 21.3658 32.0983 21.2625 32.0598 21.1601C32.0444 21.1187 32.0292 21.0776 32.0131 21.0366C31.9598 20.9004 31.9044 20.7653 31.8453 20.6326C31.8411 20.6229 31.8362 20.6134 31.8317 20.6037C31.7762 20.4803 31.7183 20.359 31.6582 20.2387C31.6371 20.1966 31.6154 20.155 31.5938 20.1134C31.5467 20.0223 31.4979 19.9323 31.448 19.843C31.4253 19.8022 31.4029 19.7615 31.3795 19.7213C31.3094 19.6 31.2375 19.4799 31.1625 19.3624C31.1497 19.3425 31.1359 19.3231 31.123 19.3033C31.0586 19.2037 30.9924 19.1058 30.9244 19.009C30.8947 18.9669 30.8646 18.9252 30.8341 18.8836C30.7788 18.8074 30.7223 18.7322 30.6647 18.6576C30.6339 18.6172 30.603 18.5768 30.5713 18.5369C30.4881 18.4329 30.4036 18.3302 30.3166 18.2298C30.2922 18.2017 30.2667 18.1746 30.242 18.1468C30.173 18.0687 30.1029 17.9918 30.0314 17.9163C29.993 17.8759 29.9542 17.8362 29.9152 17.7965C29.8536 17.7334 29.791 17.6715 29.7276 17.6104C29.6887 17.5727 29.6501 17.5348 29.6105 17.4977C29.5148 17.4082 29.4178 17.3202 29.3186 17.2348C29.2475 17.1505 29.1626 17.0802 29.0673 17.0277C28.9564 16.9385 28.8437 16.8519 28.7291 16.7675C28.7252 16.7647 28.7211 16.7617 28.7173 16.7588C28.6048 16.6763 28.4907 16.5964 28.3749 16.5188C28.3693 16.515 28.3636 16.5111 28.3579 16.5073C28.2422 16.4301 28.125 16.3555 28.0062 16.2833C28.0014 16.2804 27.9967 16.2774 27.9919 16.2747C27.871 16.2014 27.7485 16.1306 27.6245 16.0628C27.624 16.0625 27.6235 16.0623 27.6229 16.0619C26.0992 15.2276 24.3539 14.7976 22.5602 14.8702C22.5601 14.8702 22.56 14.8702 22.5598 14.8702C22.5523 14.8706 22.545 14.871 22.5376 14.871C22.3523 14.8791 22.1663 14.8917 21.9798 14.9107C21.9777 14.9109 21.9755 14.911 21.9734 14.9113C21.8094 14.9279 21.6454 14.9488 21.4811 14.9741C21.4659 14.9765 21.4507 14.9781 21.4354 14.9806C21.2853 15.0045 21.1353 15.0325 20.9852 15.0635C20.9581 15.069 20.9312 15.0733 20.9042 15.0791C20.7316 15.1163 20.5593 15.1578 20.3868 15.2048C20.2455 15.2434 20.1062 15.2862 19.9681 15.3307C19.9248 15.3447 19.8817 15.3591 19.8388 15.3735C19.7374 15.4078 19.6372 15.4436 19.5377 15.481C19.4705 15.506 19.4038 15.532 19.3374 15.5586C19.2518 15.593 19.1666 15.6278 19.0823 15.6645C19.0061 15.6975 18.9308 15.7319 18.8556 15.7666C18.8197 15.7834 18.7841 15.8006 18.7483 15.8177C18.4717 15.9502 18.2037 16.0945 17.9441 16.2503C17.9391 16.2529 17.9348 16.2562 17.93 16.2588C17.7927 16.3416 17.6579 16.4276 17.5256 16.5165C17.5235 16.518 17.5215 16.5193 17.5194 16.5206C16.5988 17.1415 15.8021 17.9095 15.1528 18.7833C15.1504 18.7863 15.1482 18.7895 15.1458 18.7924C14.5733 19.5646 14.1164 20.4177 13.7916 21.3238C13.7833 21.3446 13.7748 21.3652 13.7684 21.387C13.7684 21.3872 13.7682 21.3873 13.7682 21.3874C13.7362 21.479 13.7062 21.5716 13.6769 21.6643C13.6654 21.7002 13.6539 21.7362 13.643 21.7725C13.6156 21.8622 13.5894 21.952 13.5645 22.0425C13.5548 22.0782 13.5458 22.1139 13.5364 22.1497C13.4614 22.4371 13.3992 22.7282 13.3507 23.0229C13.3418 23.0765 13.3328 23.1303 13.3249 23.1843C13.3132 23.2636 13.3023 23.3429 13.2926 23.4228C13.2848 23.4854 13.2784 23.548 13.272 23.6108C13.2643 23.6852 13.2561 23.7595 13.2502 23.8342C13.2402 23.9602 13.2325 24.0866 13.2273 24.2135C13.225 24.2746 13.2246 24.336 13.2234 24.3973C13.2215 24.4807 13.2205 24.5643 13.2207 24.6477C13.2211 24.7103 13.2222 24.7728 13.2236 24.8353C13.2259 24.9245 13.2296 25.0137 13.2342 25.1031C13.237 25.1575 13.2394 25.2116 13.2431 25.2661C13.2527 25.4058 13.265 25.5456 13.2807 25.6857C13.2842 25.7169 13.2893 25.7482 13.2932 25.7792C13.3074 25.8952 13.3236 26.0111 13.3422 26.1273C13.35 26.176 13.3587 26.225 13.3673 26.2737C13.3855 26.3778 13.4056 26.4817 13.4275 26.5857C13.4369 26.631 13.4461 26.6763 13.4561 26.7213C13.489 26.8674 13.5243 27.0136 13.564 27.1595C14.2495 29.6673 15.8706 31.758 18.1286 33.0467C19.6193 33.897 21.2685 34.3307 22.9383 34.3307ZM20.4448 32.1405C20.3352 32.1038 20.2264 32.0638 20.118 32.0222C20.0831 32.0086 20.0482 31.9943 20.0132 31.9805C19.9369 31.95 19.861 31.918 19.7853 31.885C19.7488 31.869 19.7121 31.8533 19.6758 31.8367C19.5839 31.795 19.4925 31.7514 19.402 31.706C19.3868 31.6983 19.3712 31.6915 19.356 31.6837L19.9802 31.5131C20.1302 31.7253 20.2845 31.9348 20.4451 32.1406C20.4448 32.1405 20.4448 32.1405 20.4448 32.1405ZM19.4369 26.4786L22.329 25.6882L23.1774 28.7916L20.7582 29.4529C20.2087 28.5196 19.7673 27.5278 19.4369 26.4786ZM24.1762 32.4487C24.02 32.4734 23.8638 32.4927 23.7074 32.508C23.6923 32.5095 23.6773 32.5108 23.6624 32.5122C23.5051 32.5266 23.3479 32.5371 23.1908 32.5422C22.6921 32.0553 22.2358 31.5439 21.8192 31.0103L23.6473 30.5106L24.1771 32.4487C24.1768 32.4487 24.1766 32.4487 24.1762 32.4487ZM26.4051 31.7561C26.405 31.7561 26.405 31.7561 26.4049 31.7561C26.2384 31.8359 26.069 31.9103 25.8963 31.9787L25.3665 30.0409L26.8541 29.6343C26.7549 30.3184 26.6086 31.0254 26.4051 31.7561ZM27.0124 27.7433L24.8969 28.3216L24.0485 25.2182L26.7161 24.489C26.9247 25.4893 27.0373 26.5759 27.0124 27.7433ZM28.5669 30.226C28.6283 29.8528 28.6754 29.4867 28.7119 29.1266L29.6527 28.8695C29.3369 29.364 28.9741 29.819 28.5669 30.226ZM30.8089 23.3703C30.8308 23.5096 30.8489 23.649 30.8633 23.7885C30.8642 23.7972 30.8649 23.806 30.8659 23.8147C30.8792 23.9471 30.8892 24.0794 30.8958 24.2117C30.8963 24.2224 30.8968 24.2331 30.8972 24.2437C30.9034 24.3764 30.9062 24.509 30.9056 24.6414C30.9054 24.6493 30.9056 24.6572 30.9054 24.6653C30.9044 24.8043 30.8999 24.9431 30.8916 25.0814C30.8916 25.0816 30.8916 25.0817 30.8916 25.0818C30.857 25.6498 30.761 26.2123 30.6045 26.7616L28.7989 27.2551C28.7876 26.0909 28.6551 25.0091 28.4427 24.0172L30.8089 23.3703ZM28.3933 18.7994C28.6007 18.9934 28.7979 19.1989 28.9845 19.4154C28.9861 19.4172 28.9875 19.4189 28.9891 19.4208C29.2682 19.7456 29.5226 20.0946 29.7485 20.4663C29.7488 20.4667 29.7492 20.4672 29.7494 20.4677C29.9758 20.8403 30.1735 21.2355 30.3388 21.6509C30.3388 21.6511 30.3388 21.6511 30.3388 21.6511L27.9742 22.2975C27.6464 21.312 27.253 20.4428 26.8534 19.7011C26.7765 19.5586 26.6986 19.4204 26.6202 19.2843L28.3933 18.7994ZM24.9736 16.9067C25.1019 16.9406 25.2291 16.9778 25.3552 17.0181C25.359 17.0194 25.3631 17.0206 25.3669 17.0218C25.7498 17.1446 26.1223 17.2957 26.4812 17.4738C26.4813 17.474 26.4816 17.474 26.4817 17.4741L25.6007 17.7149C25.3868 17.4217 25.1763 17.1524 24.9736 16.9067ZM26.2434 22.7705L23.5784 23.4989L22.7177 20.3506L24.8265 19.7742C25.3475 20.6217 25.8506 21.6233 26.2434 22.7705ZM21.7318 16.7407C21.921 16.7111 22.1099 16.688 22.2984 16.6722C22.3012 16.6719 22.3037 16.6715 22.3065 16.6714C22.6033 16.9426 23.136 17.4658 23.7395 18.2236L22.2481 18.6313L21.7312 16.7409C21.7314 16.7409 21.7316 16.7407 21.7318 16.7407ZM19.1193 17.6299C19.1194 17.6298 19.1197 17.6296 19.1199 17.6296C19.2566 17.5544 19.3963 17.4832 19.5382 17.4156C19.5498 17.4102 19.5612 17.4047 19.5727 17.3993C19.7159 17.3319 19.8617 17.268 20.0103 17.2089C20.0106 17.2089 20.0108 17.2086 20.0112 17.2085L20.5286 19.1013L18.7989 19.5741C18.8931 18.6866 19.0311 18.0071 19.1193 17.6299ZM20.9986 20.8205L21.8592 23.9687L19.0013 24.7499C18.8727 24.0787 18.7824 23.3884 18.735 22.677C18.7067 22.2516 18.6956 21.8417 18.6969 21.4499L20.9986 20.8205ZM17.0346 19.2918C17.0073 19.5388 16.983 19.8004 16.9637 20.0758L16.295 20.2586C16.5162 19.9184 16.7636 19.5956 17.0346 19.2918ZM15.0988 25.8163C15.0766 25.6741 15.0586 25.5319 15.0443 25.39C15.0427 25.3747 15.0416 25.3595 15.0402 25.3442C15.028 25.217 15.019 25.09 15.0131 24.9633C15.012 24.9411 15.0112 24.9189 15.0105 24.8967C15.0058 24.7763 15.004 24.6565 15.0048 24.5366C15.0049 24.5116 15.0052 24.4865 15.0056 24.4617C15.0077 24.3434 15.0124 24.2255 15.0197 24.108C15.0211 24.0839 15.0223 24.0597 15.0239 24.0354C15.0325 23.9136 15.0443 23.7922 15.0586 23.6713C15.0608 23.6532 15.0622 23.6351 15.0646 23.6172C15.1174 23.1936 15.2039 22.7774 15.3226 22.3718L16.9189 21.9354C16.9247 22.1926 16.9351 22.4556 16.952 22.7249C17.0056 23.5774 17.1161 24.41 17.2802 25.2199L15.0989 25.8163C15.0989 25.8165 15.0989 25.8164 15.0988 25.8163ZM16.1439 28.6995C16.1399 28.6931 16.136 28.6865 16.1323 28.68C16.0641 28.5662 15.999 28.4504 15.9367 28.3329C15.9318 28.3235 15.9268 28.314 15.9218 28.3047C15.8602 28.1873 15.8014 28.0681 15.7454 27.9474C15.7419 27.9395 15.7382 27.9318 15.7346 27.9239C15.6761 27.7964 15.6205 27.6672 15.5685 27.536L17.7263 26.9461C18.0533 27.99 18.4807 28.987 18.9986 29.9336L17.4697 30.3515C16.9545 29.8624 16.5093 29.3074 16.1439 28.6995Z" fill="#2E78B4"/>
<path d="M32.8642 36.8493L20.3768 40.1427C18.6202 40.6061 17.568 42.4122 18.0311 44.1689C18.2556 45.0197 18.798 45.7325 19.5582 46.1754C20.0686 46.4729 20.6361 46.6247 21.2113 46.6247C21.4932 46.6247 21.7772 46.5881 22.0571 46.5144L34.5442 43.221C35.3954 42.9965 36.1081 42.4541 36.551 41.6937C36.9939 40.9334 37.1146 40.0459 36.89 39.1949C36.4269 37.4383 34.6208 36.3868 32.8642 36.8493Z" fill="#2E78B4"/>
<path d="M4.77188 31.9438L1.75462 20.2143C1.63183 19.7375 1.14493 19.4505 0.669249 19.5733C0.192776 19.6961 -0.0942435 20.1817 0.0282744 20.6585L3.04567 32.3882C3.14918 32.7902 3.51119 33.0573 3.90805 33.0573C3.98172 33.0573 4.05645 33.0483 4.13091 33.0291C4.60751 32.9064 4.8944 32.4206 4.77188 31.9438Z" fill="#2E78B4"/>
<path d="M5.5521 38.5524C6.02871 38.4298 6.31573 37.944 6.19321 37.4672L5.70472 35.5687C5.58181 35.0919 5.09583 34.8052 4.61949 34.9277C4.14302 35.0504 3.85586 35.5361 3.97851 36.0129L4.46687 37.9114C4.57038 38.3136 4.93238 38.5807 5.32925 38.5807C5.40292 38.5807 5.47751 38.5715 5.5521 38.5524Z" fill="#2E78B4"/>
<path d="M7.08115 40.9197C6.95837 40.4431 6.47173 40.1564 5.99592 40.2787C5.51931 40.4015 5.23242 40.8872 5.35494 41.364L7.17555 48.441C7.27905 48.843 7.64106 49.1103 8.03793 49.1103C8.1116 49.1103 8.18619 49.1012 8.26078 49.082C8.73726 48.9592 9.02427 48.4735 8.90176 47.9968L7.08115 40.9197Z" fill="#2E78B4"/>
<path d="M43.6513 27.6937L44.1508 29.5896C44.2565 29.9892 44.6172 30.2537 45.012 30.2537C45.087 30.2537 45.1636 30.2442 45.2398 30.2241C45.7156 30.0985 45.9998 29.611 45.8744 29.1352L45.3747 27.2394C45.2493 26.7636 44.762 26.4795 44.2859 26.6048C43.81 26.7303 43.5257 27.2178 43.6513 27.6937Z" fill="#2E78B4"/>
<path d="M42.7422 24.2469C42.8477 24.6466 43.2084 24.9111 43.6034 24.9111C43.6786 24.9111 43.7549 24.9016 43.8312 24.8814C44.307 24.756 44.5912 24.2684 44.4657 23.7926L42.603 16.7265C42.4773 16.2507 41.9896 15.9671 41.514 16.0919C41.0379 16.2173 40.7538 16.705 40.8793 17.1807L42.7422 24.2469Z" fill="#2E78B4"/>
</svg>
