<svg xmlns="http://www.w3.org/2000/svg" width="48" height="43" viewBox="0 0 48 43" fill="none">
  <path fill-rule="evenodd" clip-rule="evenodd" d="M23.4987 1.32502C24.0162 1.11045 24.5709 1 25.1311 1C25.6913 1 26.246 1.11045 26.7634 1.32502C27.2808 1.53953 27.7507 1.8539 28.1465 2.25015L40.9723 15.0759C41.228 15.3312 41.4696 15.6002 41.6961 15.8815H42.9452C45.2894 15.8815 47.1897 17.7818 47.1897 20.126V23.434V26.8889V37.9704C47.1897 40.3145 45.2894 42.2148 42.9452 42.2148H14.7362C12.3921 42.2148 10.4918 40.3145 10.4918 37.9704V36.3797L2.2505 28.1468C1.85413 27.751 1.53957 27.2809 1.32502 26.7634C1.11045 26.246 1 25.6913 1 25.1311C1 24.5709 1.11045 24.0162 1.32502 23.4987C1.53954 22.9813 1.85388 22.5114 2.25015 22.1156L22.1153 2.2505C22.511 1.85424 22.9814 1.53953 23.4987 1.32502ZM45.9042 24.0768V26.2461H11.7773V24.0768H45.9042ZM45.9042 27.5317H11.7773V35.9821C11.8003 36.0796 11.8003 36.1814 11.7773 36.2788V37.9704C11.7773 39.6046 13.1021 40.9293 14.7362 40.9293H42.9452C44.5794 40.9293 45.9042 39.6046 45.9042 37.9704V27.5317ZM10.4918 23.434V26.8889V34.5626L3.15882 27.2371C2.88198 26.9607 2.66236 26.6324 2.51251 26.271C2.36266 25.9097 2.28553 25.5223 2.28553 25.1311C2.28553 24.7398 2.36266 24.3525 2.51251 23.9911C2.66236 23.6297 2.88232 23.3011 3.15916 23.0246L23.025 3.15882C23.3014 2.88198 23.6297 2.66236 23.9911 2.51251C24.3525 2.36266 24.7398 2.28553 25.1311 2.28553C25.5223 2.28553 25.9097 2.36266 26.271 2.51251C26.6324 2.66236 26.9611 2.88232 27.2375 3.15916L39.9598 15.8815H14.7362C12.3921 15.8815 10.4918 17.7818 10.4918 20.126V23.434ZM45.9042 22.7913V20.126C45.9042 18.4918 44.5794 17.1671 42.9452 17.1671H14.7362C13.1021 17.1671 11.7773 18.4918 11.7773 20.126V22.7913H45.9042ZM16.3168 31.4284C15.9619 31.4284 15.6741 31.7162 15.6741 32.0712C15.6741 32.4262 15.9619 32.714 16.3168 32.714H23.2266C23.5816 32.714 23.8693 32.4262 23.8693 32.0712C23.8693 31.7162 23.5816 31.4284 23.2266 31.4284H16.3168ZM15.6741 35.5261C15.6741 35.1711 15.9619 34.8833 16.3168 34.8833H20.6354C20.9904 34.8833 21.2782 35.1711 21.2782 35.5261C21.2782 35.8811 20.9904 36.1688 20.6354 36.1688H16.3168C15.9619 36.1688 15.6741 35.8811 15.6741 35.5261ZM26.6814 31.4284C26.3265 31.4284 26.0387 31.7162 26.0387 32.0712C26.0387 32.4262 26.3265 32.714 26.6814 32.714H31C31.355 32.714 31.6428 32.4262 31.6428 32.0712C31.6428 31.7162 31.355 31.4284 31 31.4284H26.6814Z" fill="#2E78B4"/>
  <path d="M23.4987 1.32502L23.3072 0.86315V0.86315L23.4987 1.32502ZM26.7634 1.32502L26.9549 0.86315V0.86315L26.7634 1.32502ZM28.1465 2.25015L27.7927 2.60348L27.7929 2.60371L28.1465 2.25015ZM40.9723 15.0759L40.6187 15.4295L40.619 15.4298L40.9723 15.0759ZM41.6961 15.8815L41.3066 16.195C41.4015 16.313 41.5447 16.3815 41.6961 16.3815V15.8815ZM10.4918 36.3797H10.9918C10.9918 36.247 10.939 36.1197 10.8452 36.0259L10.4918 36.3797ZM2.2505 28.1468L2.60387 27.7931L2.6038 27.793L2.2505 28.1468ZM1.32502 26.7634L1.78689 26.5719H1.78689L1.32502 26.7634ZM1.32502 23.4987L0.86315 23.3072H0.86315L1.32502 23.4987ZM2.25015 22.1156L2.60348 22.4694L2.60371 22.4692L2.25015 22.1156ZM22.1153 2.2505L22.4688 2.60405L22.4691 2.60382L22.1153 2.2505ZM45.9042 26.2461V26.7461C46.1803 26.7461 46.4042 26.5223 46.4042 26.2461H45.9042ZM45.9042 24.0768H46.4042C46.4042 23.8007 46.1803 23.5768 45.9042 23.5768V24.0768ZM11.7773 26.2461H11.2773C11.2773 26.5223 11.5012 26.7461 11.7773 26.7461V26.2461ZM11.7773 24.0768V23.5768C11.5012 23.5768 11.2773 23.8007 11.2773 24.0768H11.7773ZM11.7773 27.5317V27.0317C11.5012 27.0317 11.2773 27.2555 11.2773 27.5317H11.7773ZM45.9042 27.5317H46.4042C46.4042 27.2555 46.1803 27.0317 45.9042 27.0317V27.5317ZM11.7773 35.9821H11.2773C11.2773 36.0208 11.2818 36.0594 11.2907 36.0971L11.7773 35.9821ZM11.7773 36.2788L11.2907 36.1639C11.2818 36.2016 11.2773 36.2401 11.2773 36.2788H11.7773ZM10.4918 34.5626L10.1384 34.9163C10.2814 35.0592 10.4965 35.1019 10.6832 35.0245C10.87 34.9471 10.9918 34.7648 10.9918 34.5626H10.4918ZM3.15882 27.2371L3.51219 26.8834L3.51211 26.8833L3.15882 27.2371ZM2.51251 26.271L2.97438 26.0795H2.97438L2.51251 26.271ZM2.51251 23.9911L2.05064 23.7996L2.05064 23.7996L2.51251 23.9911ZM3.15916 23.0246L3.51245 23.3785L3.51272 23.3782L3.15916 23.0246ZM23.025 3.15882L23.3785 3.51238L23.3788 3.51211L23.025 3.15882ZM23.9911 2.51251L23.7996 2.05064V2.05064L23.9911 2.51251ZM26.271 2.51251L26.4626 2.05064V2.05064L26.271 2.51251ZM27.2375 3.15916L26.8837 3.51245L26.8839 3.51272L27.2375 3.15916ZM39.9598 15.8815V16.3815C40.1621 16.3815 40.3444 16.2597 40.4218 16.0729C40.4992 15.886 40.4564 15.671 40.3134 15.528L39.9598 15.8815ZM45.9042 22.7913V23.2913C46.1803 23.2913 46.4042 23.0674 46.4042 22.7913H45.9042ZM11.7773 22.7913H11.2773C11.2773 23.0674 11.5012 23.2913 11.7773 23.2913V22.7913ZM25.1311 0.5C24.5051 0.5 23.8854 0.623403 23.3072 0.86315L23.6902 1.78689C24.147 1.59749 24.6366 1.5 25.1311 1.5V0.5ZM26.9549 0.86315C26.3768 0.623403 25.757 0.5 25.1311 0.5V1.5C25.6255 1.5 26.1152 1.59749 26.5719 1.78689L26.9549 0.86315ZM28.5003 1.89683C28.0581 1.45408 27.533 1.10283 26.9549 0.86315L26.5719 1.78689C27.0285 1.97623 27.4434 2.25372 27.7927 2.60348L28.5003 1.89683ZM41.3258 14.7224L28.5 1.8966L27.7929 2.60371L40.6187 15.4295L41.3258 14.7224ZM42.0856 15.568C41.8478 15.2726 41.5941 14.9902 41.3255 14.7221L40.619 15.4298C40.862 15.6723 41.0915 15.9278 41.3066 16.195L42.0856 15.568ZM42.9452 15.3815H41.6961V16.3815H42.9452V15.3815ZM47.6897 20.126C47.6897 17.5057 45.5655 15.3815 42.9452 15.3815V16.3815C45.0132 16.3815 46.6897 18.058 46.6897 20.126H47.6897ZM47.6897 23.434V20.126H46.6897V23.434H47.6897ZM47.6897 26.8889V23.434H46.6897V26.8889H47.6897ZM47.6897 37.9704V26.8889H46.6897V37.9704H47.6897ZM42.9452 42.7148C45.5655 42.7148 47.6897 40.5907 47.6897 37.9704H46.6897C46.6897 40.0384 45.0132 41.7148 42.9452 41.7148V42.7148ZM14.7362 42.7148H42.9452V41.7148H14.7362V42.7148ZM9.99178 37.9704C9.99178 40.5907 12.1159 42.7148 14.7362 42.7148V41.7148C12.6682 41.7148 10.9918 40.0384 10.9918 37.9704H9.99178ZM9.99178 36.3797V37.9704H10.9918V36.3797H9.99178ZM1.89712 28.5006L10.1384 36.7334L10.8452 36.0259L2.60387 27.7931L1.89712 28.5006ZM0.86315 26.9549C1.10288 27.5331 1.45434 28.0584 1.89719 28.5006L2.6038 27.793C2.25392 27.4436 1.97626 27.0286 1.78689 26.5719L0.86315 26.9549ZM0.5 25.1311C0.5 25.757 0.623403 26.3768 0.86315 26.9549L1.78689 26.5719C1.59749 26.1152 1.5 25.6255 1.5 25.1311H0.5ZM0.86315 23.3072C0.623403 23.8854 0.5 24.5051 0.5 25.1311H1.5C1.5 24.6366 1.59749 24.147 1.78689 23.6902L0.86315 23.3072ZM1.89683 21.7619C1.45406 22.204 1.10283 22.7291 0.86315 23.3072L1.78689 23.6902C1.97624 23.2335 2.2537 22.8187 2.60348 22.4694L1.89683 21.7619ZM21.7617 1.89694L1.8966 21.7621L2.60371 22.4692L22.4688 2.60405L21.7617 1.89694ZM23.3072 0.86315C22.7291 1.10285 22.2037 1.45446 21.7615 1.89717L22.4691 2.60382C22.8184 2.25402 23.2336 1.97621 23.6902 1.78689L23.3072 0.86315ZM46.4042 26.2461V24.0768H45.4042V26.2461H46.4042ZM11.7773 26.7461H45.9042V25.7461H11.7773V26.7461ZM11.2773 24.0768V26.2461H12.2773V24.0768H11.2773ZM45.9042 23.5768H11.7773V24.5768H45.9042V23.5768ZM11.7773 28.0317H45.9042V27.0317H11.7773V28.0317ZM12.2773 35.9821V27.5317H11.2773V35.9821H12.2773ZM12.2639 36.3938C12.3048 36.2207 12.3048 36.0402 12.2639 35.8672L11.2907 36.0971C11.2959 36.1189 11.2959 36.142 11.2907 36.1639L12.2639 36.3938ZM12.2773 37.9704V36.2788H11.2773V37.9704H12.2773ZM14.7362 40.4293C13.3782 40.4293 12.2773 39.3284 12.2773 37.9704H11.2773C11.2773 39.8807 12.8259 41.4293 14.7362 41.4293V40.4293ZM42.9452 40.4293H14.7362V41.4293H42.9452V40.4293ZM45.4042 37.9704C45.4042 39.3284 44.3033 40.4293 42.9452 40.4293V41.4293C44.8555 41.4293 46.4042 39.8807 46.4042 37.9704H45.4042ZM45.4042 27.5317V37.9704H46.4042V27.5317H45.4042ZM10.9918 26.8889V23.434H9.99178V26.8889H10.9918ZM10.9918 34.5626V26.8889H9.99178V34.5626H10.9918ZM2.80545 27.5909L10.1384 34.9163L10.8452 34.2089L3.51219 26.8834L2.80545 27.5909ZM2.05064 26.4626C2.22566 26.8846 2.48219 27.2681 2.80553 27.591L3.51211 26.8833C3.28178 26.6533 3.09905 26.3802 2.97438 26.0795L2.05064 26.4626ZM1.78553 25.1311C1.78553 25.588 1.87562 26.0405 2.05064 26.4626L2.97438 26.0795C2.8497 25.7789 2.78553 25.4566 2.78553 25.1311H1.78553ZM2.05064 23.7996C1.87562 24.2217 1.78553 24.6741 1.78553 25.1311H2.78553C2.78553 24.8056 2.8497 24.4833 2.97438 24.1826L2.05064 23.7996ZM2.80587 22.6708C2.48258 22.9936 2.2257 23.3774 2.05064 23.7996L2.97438 24.1826C3.09902 23.882 3.28206 23.6085 3.51245 23.3785L2.80587 22.6708ZM22.6714 2.80527L2.80561 22.6711L3.51272 23.3782L23.3785 3.51238L22.6714 2.80527ZM23.7996 2.05064C23.3775 2.22566 22.994 2.48218 22.6712 2.80553L23.3788 3.51211C23.6088 3.28178 23.8819 3.09905 24.1826 2.97438L23.7996 2.05064ZM25.1311 1.78553C24.6741 1.78553 24.2217 1.87562 23.7996 2.05064L24.1826 2.97438C24.4833 2.8497 24.8056 2.78553 25.1311 2.78553V1.78553ZM26.4626 2.05064C26.0405 1.87562 25.588 1.78553 25.1311 1.78553V2.78553C25.4566 2.78553 25.7789 2.8497 26.0795 2.97438L26.4626 2.05064ZM27.5913 2.80587C27.2685 2.48258 26.8847 2.2257 26.4626 2.05064L26.0795 2.97438C26.3801 3.09902 26.6536 3.28206 26.8837 3.51245L27.5913 2.80587ZM40.3134 15.528L27.591 2.80561L26.8839 3.51272L39.6063 16.2351L40.3134 15.528ZM14.7362 16.3815H39.9598V15.3815H14.7362V16.3815ZM10.9918 20.126C10.9918 18.058 12.6682 16.3815 14.7362 16.3815V15.3815C12.1159 15.3815 9.99178 17.5057 9.99178 20.126H10.9918ZM10.9918 23.434V20.126H9.99178V23.434H10.9918ZM45.4042 20.126V22.7913H46.4042V20.126H45.4042ZM42.9452 17.6671C44.3033 17.6671 45.4042 18.768 45.4042 20.126H46.4042C46.4042 18.2157 44.8555 16.6671 42.9452 16.6671V17.6671ZM14.7362 17.6671H42.9452V16.6671H14.7362V17.6671ZM12.2773 20.126C12.2773 18.768 13.3782 17.6671 14.7362 17.6671V16.6671C12.8259 16.6671 11.2773 18.2157 11.2773 20.126H12.2773ZM12.2773 22.7913V20.126H11.2773V22.7913H12.2773ZM45.9042 22.2913H11.7773V23.2913H45.9042V22.2913ZM16.1741 32.0712C16.1741 31.9923 16.238 31.9284 16.3168 31.9284V30.9284C15.6857 30.9284 15.1741 31.4401 15.1741 32.0712H16.1741ZM16.3168 32.214C16.238 32.214 16.1741 32.15 16.1741 32.0712H15.1741C15.1741 32.7023 15.6857 33.214 16.3168 33.214V32.214ZM23.2266 32.214H16.3168V33.214H23.2266V32.214ZM23.3693 32.0712C23.3693 32.15 23.3054 32.214 23.2266 32.214V33.214C23.8577 33.214 24.3693 32.7023 24.3693 32.0712H23.3693ZM23.2266 31.9284C23.3054 31.9284 23.3693 31.9923 23.3693 32.0712H24.3693C24.3693 31.4401 23.8577 30.9284 23.2266 30.9284V31.9284ZM16.3168 31.9284H23.2266V30.9284H16.3168V31.9284ZM16.3168 34.3833C15.6857 34.3833 15.1741 34.8949 15.1741 35.5261H16.1741C16.1741 35.4472 16.238 35.3833 16.3168 35.3833V34.3833ZM20.6354 34.3833H16.3168V35.3833H20.6354V34.3833ZM21.7782 35.5261C21.7782 34.8949 21.2666 34.3833 20.6354 34.3833V35.3833C20.7143 35.3833 20.7782 35.4472 20.7782 35.5261H21.7782ZM20.6354 36.6688C21.2666 36.6688 21.7782 36.1572 21.7782 35.5261H20.7782C20.7782 35.6049 20.7143 35.6688 20.6354 35.6688V36.6688ZM16.3168 36.6688H20.6354V35.6688H16.3168V36.6688ZM15.1741 35.5261C15.1741 36.1572 15.6857 36.6688 16.3168 36.6688V35.6688C16.238 35.6688 16.1741 35.6049 16.1741 35.5261H15.1741ZM26.5387 32.0712C26.5387 31.9923 26.6026 31.9284 26.6814 31.9284V30.9284C26.0503 30.9284 25.5387 31.4401 25.5387 32.0712H26.5387ZM26.6814 32.214C26.6026 32.214 26.5387 32.15 26.5387 32.0712H25.5387C25.5387 32.7023 26.0503 33.214 26.6814 33.214V32.214ZM31 32.214H26.6814V33.214H31V32.214ZM31.1428 32.0712C31.1428 32.15 31.0789 32.214 31 32.214V33.214C31.6312 33.214 32.1428 32.7023 32.1428 32.0712H31.1428ZM31 31.9284C31.0789 31.9284 31.1428 31.9924 31.1428 32.0712H32.1428C32.1428 31.4401 31.6312 30.9284 31 30.9284V31.9284ZM26.6814 31.9284H31V30.9284H26.6814V31.9284Z" fill="#2E78B4"/>
</svg>