<svg width="47" height="48" viewBox="0 0 47 48" fill="none" xmlns="http://www.w3.org/2000/svg">
<path d="M31.4669 24.2537L31.4526 24.2545C31.4526 24.2545 31.5719 24.1622 31.7962 24.0302C31.845 24.0009 31.887 23.9642 31.9372 23.9364C31.9785 23.9169 32.0182 23.9057 32.0573 23.8876C32.8157 23.49 34.2718 22.9139 36.3859 22.9387V3.76672C36.3859 1.68268 34.7039 0 32.6192 0H3.76672C1.68268 0 0 1.68193 0 3.76672V45.1999H26.3348V42.7618C26.298 42.2621 26.3348 41.9058 26.3348 41.9058C26.3348 41.9058 26.3348 41.4504 26.3348 40.7392C26.3348 38.9193 26.3348 35.3769 26.3348 33.091C26.3348 29.9132 28.223 29.142 29.4496 28.9169C29.3063 27.0092 30.0362 25.2995 31.4669 24.2537ZM22.9267 14.1209L23.9649 13.1351C24.457 12.6693 25.232 12.6903 25.6994 13.1816C26.1652 13.6745 26.145 14.4495 25.6529 14.9153L24.6123 15.9011C24.1217 16.367 23.346 16.346 22.8801 15.8546C22.4135 15.3617 22.4345 14.5875 22.9267 14.1209ZM16.8478 11.4915C16.8478 10.8148 17.3955 10.2649 18.0737 10.2649C18.7503 10.2649 19.3002 10.814 19.3002 11.4915V12.9236C19.3002 13.6018 18.7511 14.1494 18.0737 14.1494C17.3955 14.1494 16.8478 13.6018 16.8478 12.9236V11.4915ZM10.4607 13.1824C10.9281 12.691 11.7023 12.67 12.1944 13.1359L13.2327 14.1216C13.7255 14.5875 13.7465 15.3625 13.2792 15.8553C12.8133 16.3467 12.0384 16.3677 11.5462 15.9018L10.5065 14.9161C10.0158 14.4495 9.99482 13.6753 10.4607 13.1824ZM7.52894 19.8591C7.52894 19.1802 8.07658 18.6333 8.75476 18.6333H10.1869C10.865 18.6333 11.4127 19.1802 11.4127 19.8591C11.4127 20.5358 10.865 21.0849 10.1869 21.0849H8.75476C8.07733 21.0857 7.52894 20.5358 7.52894 19.8591ZM13.2582 26.4698L12.2882 27.5216C11.8298 28.0227 11.0548 28.0535 10.556 27.5951C10.0563 27.1367 10.0241 26.3625 10.4832 25.8614L11.4532 24.8081C11.9116 24.3093 12.6865 24.2778 13.1854 24.7361C13.685 25.1952 13.7173 25.9702 13.2582 26.4698ZM19.4195 29.2875C19.4195 29.9642 18.8719 30.5141 18.1937 30.5141C17.517 30.5141 16.9679 29.965 16.9679 29.2875V27.8562C16.9679 27.1795 17.517 26.6296 18.1937 26.6296C18.8719 26.6296 19.4195 27.1787 19.4195 27.8562V29.2875ZM18.0759 25.2778C15.364 25.2778 13.1666 23.0804 13.1666 20.37C13.1666 17.6595 15.364 15.4607 18.0759 15.4607C20.7856 15.4607 22.9829 17.6595 22.9829 20.37C22.9822 23.0804 20.7849 25.2778 18.0759 25.2778ZM25.8562 27.5951C25.3573 28.0535 24.5823 28.0227 24.1232 27.5216L23.154 26.4698C22.6941 25.9702 22.7271 25.1952 23.226 24.7361C23.7249 24.277 24.4998 24.3093 24.9582 24.8081L25.9282 25.8614C26.3888 26.3633 26.3558 27.1367 25.8562 27.5951ZM27.2005 21.0857H25.7684C25.0902 21.0857 24.5426 20.5365 24.5426 19.8599C24.5426 19.1809 25.0895 18.634 25.7684 18.634H27.2005C27.8779 18.634 28.4263 19.1809 28.4263 19.8599C28.4263 20.5358 27.8779 21.0857 27.2005 21.0857Z" fill="#2E78B4"/>
<path d="M43.025 30.3693C43.0805 29.7654 43.1645 28.6213 42.3618 27.2717C41.5576 25.9191 40.3415 25.1734 39.2035 24.9379C38.0655 24.7031 36.3985 24.7623 35.4563 24.9379C33.9071 25.3302 32.8869 26.1742 32.1997 27.4098C31.5163 28.6423 31.5913 29.7954 31.631 30.3708C29.8688 30.6859 28.5312 32.217 28.5312 34.0707V44.1368C28.5312 46.2171 30.2169 47.9028 32.298 47.9028H42.3671C44.4458 47.9028 46.1338 46.2179 46.1338 44.1368V34.07C46.133 32.214 44.7894 30.6829 43.025 30.3693ZM38.5231 39.097C38.5231 39.097 38.5013 39.1105 38.4728 39.1308C38.4541 39.1458 38.4353 39.1615 38.4158 39.175C38.2538 39.3071 37.9807 39.5967 38.1165 40.0115L38.9514 42.5449H38.9507C38.9507 42.5449 39.2133 43.3506 38.6836 43.3506H36.0939C35.514 43.3506 35.6701 42.6942 35.7444 42.4541L35.7729 42.3709L35.7751 42.3634L36.5328 40.0603C36.7121 39.5179 36.2252 39.1638 36.2252 39.1638H36.2267C35.7556 38.827 35.4503 38.2726 35.4503 37.6402C35.4503 36.5981 36.292 35.7572 37.334 35.7572C38.3768 35.7572 39.2178 36.5981 39.2178 37.6402C39.2178 38.2336 38.9394 38.7504 38.5148 39.0925L38.5231 39.097ZM40.5381 30.3033H34.1044C34.0354 27.421 36.4765 27.292 36.4765 27.292C36.5156 27.292 36.7864 27.292 38.301 27.292C40.8854 27.7931 40.5508 30.2207 40.5381 30.3033Z" fill="#2E78B4"/>
</svg>
