<svg xmlns="http://www.w3.org/2000/svg" width="48" height="26" viewBox="0 0 48 26" fill="none">
  <path d="M42.3483 6.73936H42.5983V6.48936V5.7234V5.4734H42.3483H23.4831H23.2331V5.7234V6.48936V6.73936H23.4831H42.3483ZM42.3483 10.9521H42.5983V10.7021V9.93617V9.68617H42.3483H23.4831H23.2331V9.93617V10.7021V10.9521H23.4831H42.3483ZM42.3483 14.9096H42.5983V14.6596V13.8936V13.6436H42.3483H23.4831H23.2331V13.8936V14.6596V14.9096H23.4831H42.3483ZM18.5682 22.5691H18.8167L18.8182 22.3207L18.8228 21.5593L18.823 21.4894C18.823 17.4782 16.6836 13.8495 13.4929 12.5193C14.907 11.6549 15.8511 10.1076 15.8511 8.34043C15.8511 5.6261 13.6248 3.43085 10.8848 3.43085C8.14488 3.43085 5.91854 5.6261 5.91854 8.34043C5.91854 10.086 6.83984 11.6172 8.22532 12.4874C4.99165 13.7906 2.81742 17.4459 2.81742 21.4894L2.81763 21.5593L2.82224 22.3207L2.82374 22.5691H3.07223H18.5682ZM13.8006 8.34043C13.8006 9.92687 12.498 11.2181 10.8848 11.2181C9.27166 11.2181 7.9691 9.92687 7.9691 8.34043C7.9691 6.75398 9.27166 5.46277 10.8848 5.46277C12.498 5.46277 13.8006 6.75398 13.8006 8.34043ZM10.8202 14.016C13.6902 14.016 16.3424 16.7027 16.7254 20.5372H4.91509C5.29808 16.7027 7.95025 14.016 10.8202 14.016ZM3.8427 2.01596H44.1573C45.1639 2.01596 45.9747 2.82135 45.9747 3.80851V22.1915C45.9747 23.1786 45.1639 23.984 44.1573 23.984H3.8427C2.8361 23.984 2.02528 23.1786 2.02528 22.1915V3.80851C2.02528 2.82135 2.83611 2.01596 3.8427 2.01596ZM3.8427 0.75C2.13751 0.75 0.75 2.1165 0.75 3.80851V22.1915C0.75 23.8835 2.13751 25.25 3.8427 25.25H44.1573C45.8625 25.25 47.25 23.8835 47.25 22.1915V3.80851C47.25 2.1165 45.8625 0.75 44.1573 0.75H3.8427Z" fill="#2E78B4" stroke="#2E78B4" stroke-width="0.5"/>
</svg>