<svg width="48" height="54" viewBox="0 0 48 54" fill="none" xmlns="http://www.w3.org/2000/svg">
<mask id="path-1-outside-1" maskUnits="userSpaceOnUse" x="0" y="0" width="48" height="54" fill="black">
<rect fill="white" width="48" height="54"/>
<path fill-rule="evenodd" clip-rule="evenodd" d="M46.7494 21.5691C46.8207 21.592 46.8865 21.6296 46.9423 21.6796C46.9981 21.7296 47.0427 21.7908 47.0733 21.8592C47.1038 21.9276 47.1196 22.0017 47.1196 22.0766V30.5104L47.1104 30.94C47.0237 35.6317 44.6178 40.0587 40.6745 42.7806L40.6494 42.7979V52.4671C40.6494 52.6084 40.5933 52.7439 40.4933 52.8439C40.3934 52.9438 40.2578 53 40.1165 53H1.53293C1.39159 53 1.25603 52.9438 1.15609 52.8439C1.05615 52.7439 1 52.6084 1 52.4671V1.53293C1 1.39159 1.05615 1.25603 1.15609 1.15609C1.25603 1.05615 1.39159 1 1.53293 1H40.1165C40.2578 1 40.3934 1.05615 40.4933 1.15609C40.5933 1.25603 40.6494 1.39159 40.6494 1.53293V20.6154C42.1059 21.2748 43.6864 21.6156 45.2852 21.615C45.7005 21.6149 46.1155 21.5921 46.5283 21.5468C46.6027 21.5386 46.6781 21.5462 46.7494 21.5691ZM2.06586 51.9341H39.5836L39.5836 43.5336L36.2271 45.8502C36.1381 45.9116 36.0325 45.9445 35.9244 45.9445C35.8162 45.9445 35.7106 45.9116 35.6216 45.8502L31.1742 42.7805C27.2309 40.0586 24.8249 35.6315 24.7384 30.9382L24.729 30.4332V22.0766C24.729 22.0016 24.7448 21.9275 24.7754 21.8591C24.806 21.7907 24.8506 21.7295 24.9065 21.6795C24.9623 21.6296 25.028 21.5919 25.0994 21.569C25.1707 21.5462 25.2461 21.5386 25.3206 21.5469C25.7334 21.5923 26.1484 21.6151 26.5636 21.615C30.1202 21.6149 33.4581 19.9382 35.4928 17.1299C35.5422 17.0617 35.6071 17.0061 35.6821 16.9678C35.7571 16.9296 35.8401 16.9096 35.9244 16.9096C36.0086 16.9096 36.0916 16.9296 36.1666 16.9678C36.2416 17.0061 36.3065 17.0617 36.3559 17.1299C37.2197 18.3175 38.3183 19.3151 39.5836 20.0606V2.06586H2.06586V51.9341ZM40.0689 41.9033C43.7304 39.376 45.9643 35.2696 46.0447 30.9186L46.0539 30.4988L46.0537 22.657C45.7981 22.6728 45.5412 22.6808 45.2853 22.6809C43.4997 22.6874 41.7347 22.2994 40.1165 21.5445C38.4983 20.7896 37.0668 19.6865 35.9244 18.3141C34.782 19.6864 33.3506 20.7894 31.7324 21.5443C30.1142 22.2992 28.3493 22.6873 26.5637 22.6809C26.3074 22.6809 26.0504 22.673 25.7949 22.6572L25.7948 30.4233L25.804 30.9185C25.8843 35.2695 28.1182 39.3759 31.7798 41.9033L35.9244 44.764L40.0689 41.9033ZM35.7912 5.86214H24.5833V6.92799H35.7912V5.86214ZM35.7912 7.74945H24.5833V8.81531H35.7912V7.74945ZM24.5833 9.71712H35.7912V10.783H24.5833V9.71712ZM35.7912 11.5478H24.5833V12.6137H35.7912V11.5478ZM18.6051 36.2145H5.71933C5.57799 36.2145 5.44243 36.1583 5.34249 36.0584C5.24255 35.9584 5.1864 35.8229 5.1864 35.6815V16.8713C5.1864 16.7299 5.24255 16.5944 5.34249 16.4944C5.44243 16.3945 5.57799 16.3383 5.71933 16.3383H18.6051C18.7464 16.3383 18.882 16.3945 18.9819 16.4944C19.0819 16.5944 19.138 16.7299 19.138 16.8713V35.6815C19.138 35.8229 19.0819 35.9584 18.9819 36.0584C18.882 36.1583 18.7464 36.2145 18.6051 36.2145ZM18.0722 17.4042H6.25226V35.1486H18.0722V17.4042ZM18.9425 39.3912H5.58901C5.44767 39.3912 5.31212 39.4474 5.21217 39.5473C5.11223 39.6473 5.05608 39.7828 5.05608 39.9242V47.4642C5.05608 47.6055 5.11223 47.7411 5.21217 47.841C5.31212 47.941 5.44767 47.9971 5.58901 47.9971H18.9425C19.0839 47.9971 19.2194 47.941 19.3194 47.841C19.4193 47.7411 19.4755 47.6055 19.4755 47.4642V39.9242C19.4755 39.7828 19.4193 39.6473 19.3194 39.5473C19.2194 39.4474 19.0839 39.3912 18.9425 39.3912ZM18.4096 46.9313H6.12194V40.4571H18.4096V46.9313ZM44.3582 23.8484C41.3588 23.6453 38.5148 22.4399 36.283 20.4257C36.1849 20.3364 36.0571 20.287 35.9245 20.287C35.7919 20.287 35.6641 20.3364 35.566 20.4257C33.334 22.4397 30.4898 23.6451 27.4903 23.8484C27.3556 23.8577 27.2295 23.9177 27.1374 24.0164C27.0452 24.1151 26.994 24.2451 26.994 24.3801V30.4123L27.003 30.8966C27.0761 34.8623 29.1165 38.6081 32.4608 40.9166L35.6217 43.0982C35.7107 43.1597 35.8163 43.1926 35.9244 43.1926C36.0326 43.1926 36.1382 43.1597 36.2272 43.0982L39.3879 40.9167C42.7323 38.6082 44.7727 34.8596 44.846 30.8909L44.8548 30.4859V24.3801C44.8548 24.2451 44.8035 24.115 44.7113 24.0163C44.6192 23.9177 44.4929 23.8576 44.3582 23.8484ZM43.7804 30.8694C43.7133 34.4975 41.8449 37.9255 38.7824 40.0395L35.9245 42.0121L33.0663 40.0394C30.0037 37.9255 28.1354 34.5002 28.0686 30.8769L28.0597 30.4024L28.0599 24.8691C30.9575 24.5716 33.6982 23.4077 35.9245 21.5292C38.1505 23.4079 40.8913 24.5718 43.7889 24.8691L43.7891 30.4743L43.7804 30.8694ZM38.9038 28.7567H41.1958C41.3371 28.7567 41.4727 28.8129 41.5726 28.9128C41.6725 29.0128 41.7287 29.1483 41.7287 29.2897V34.1828C41.7287 34.3241 41.6725 34.4597 41.5726 34.5596C41.4727 34.6596 41.3371 34.7157 41.1958 34.7157H38.9038V37.0076C38.9038 37.149 38.8476 37.2845 38.7477 37.3845C38.6477 37.4844 38.5122 37.5406 38.3708 37.5406H33.4778C33.3365 37.5406 33.2009 37.4844 33.101 37.3845C33.001 37.2845 32.9449 37.149 32.9449 37.0076V34.7157H30.6529C30.5115 34.7157 30.376 34.6596 30.276 34.5596C30.1761 34.4597 30.1199 34.3241 30.1199 34.1828V29.2897C30.1199 29.1483 30.1761 29.0128 30.276 28.9128C30.376 28.8129 30.5115 28.7567 30.6529 28.7567H32.9449V26.4648C32.9449 26.3235 33.001 26.1879 33.101 26.088C33.2009 25.988 33.3365 25.9319 33.4778 25.9319H38.3708C38.5122 25.9319 38.6477 25.988 38.7477 26.088C38.8476 26.1879 38.9038 26.3235 38.9038 26.4648V28.7567ZM38.3708 33.6498H40.6628V29.8226H38.3708C38.3008 29.8226 38.2316 29.8088 38.1669 29.782C38.1022 29.7553 38.0435 29.716 37.994 29.6665C37.9445 29.617 37.9053 29.5583 37.8785 29.4936C37.8517 29.429 37.8379 29.3597 37.8379 29.2897V26.9977H34.0107V29.2897C34.0107 29.431 33.9546 29.5666 33.8546 29.6665C33.7547 29.7665 33.6191 29.8226 33.4778 29.8226H31.1858V33.6498H33.4778C33.6191 33.6498 33.7547 33.706 33.8546 33.8059C33.9546 33.9059 34.0107 34.0414 34.0107 34.1828V36.4747H37.8379V34.1828C37.8379 34.0414 37.8941 33.9059 37.994 33.8059C38.0939 33.706 38.2295 33.6498 38.3708 33.6498Z"/>
</mask>
<path fill-rule="evenodd" clip-rule="evenodd" d="M46.7494 21.5691C46.8207 21.592 46.8865 21.6296 46.9423 21.6796C46.9981 21.7296 47.0427 21.7908 47.0733 21.8592C47.1038 21.9276 47.1196 22.0017 47.1196 22.0766V30.5104L47.1104 30.94C47.0237 35.6317 44.6178 40.0587 40.6745 42.7806L40.6494 42.7979V52.4671C40.6494 52.6084 40.5933 52.7439 40.4933 52.8439C40.3934 52.9438 40.2578 53 40.1165 53H1.53293C1.39159 53 1.25603 52.9438 1.15609 52.8439C1.05615 52.7439 1 52.6084 1 52.4671V1.53293C1 1.39159 1.05615 1.25603 1.15609 1.15609C1.25603 1.05615 1.39159 1 1.53293 1H40.1165C40.2578 1 40.3934 1.05615 40.4933 1.15609C40.5933 1.25603 40.6494 1.39159 40.6494 1.53293V20.6154C42.1059 21.2748 43.6864 21.6156 45.2852 21.615C45.7005 21.6149 46.1155 21.5921 46.5283 21.5468C46.6027 21.5386 46.6781 21.5462 46.7494 21.5691ZM2.06586 51.9341H39.5836L39.5836 43.5336L36.2271 45.8502C36.1381 45.9116 36.0325 45.9445 35.9244 45.9445C35.8162 45.9445 35.7106 45.9116 35.6216 45.8502L31.1742 42.7805C27.2309 40.0586 24.8249 35.6315 24.7384 30.9382L24.729 30.4332V22.0766C24.729 22.0016 24.7448 21.9275 24.7754 21.8591C24.806 21.7907 24.8506 21.7295 24.9065 21.6795C24.9623 21.6296 25.028 21.5919 25.0994 21.569C25.1707 21.5462 25.2461 21.5386 25.3206 21.5469C25.7334 21.5923 26.1484 21.6151 26.5636 21.615C30.1202 21.6149 33.4581 19.9382 35.4928 17.1299C35.5422 17.0617 35.6071 17.0061 35.6821 16.9678C35.7571 16.9296 35.8401 16.9096 35.9244 16.9096C36.0086 16.9096 36.0916 16.9296 36.1666 16.9678C36.2416 17.0061 36.3065 17.0617 36.3559 17.1299C37.2197 18.3175 38.3183 19.3151 39.5836 20.0606V2.06586H2.06586V51.9341ZM40.0689 41.9033C43.7304 39.376 45.9643 35.2696 46.0447 30.9186L46.0539 30.4988L46.0537 22.657C45.7981 22.6728 45.5412 22.6808 45.2853 22.6809C43.4997 22.6874 41.7347 22.2994 40.1165 21.5445C38.4983 20.7896 37.0668 19.6865 35.9244 18.3141C34.782 19.6864 33.3506 20.7894 31.7324 21.5443C30.1142 22.2992 28.3493 22.6873 26.5637 22.6809C26.3074 22.6809 26.0504 22.673 25.7949 22.6572L25.7948 30.4233L25.804 30.9185C25.8843 35.2695 28.1182 39.3759 31.7798 41.9033L35.9244 44.764L40.0689 41.9033ZM35.7912 5.86214H24.5833V6.92799H35.7912V5.86214ZM35.7912 7.74945H24.5833V8.81531H35.7912V7.74945ZM24.5833 9.71712H35.7912V10.783H24.5833V9.71712ZM35.7912 11.5478H24.5833V12.6137H35.7912V11.5478ZM18.6051 36.2145H5.71933C5.57799 36.2145 5.44243 36.1583 5.34249 36.0584C5.24255 35.9584 5.1864 35.8229 5.1864 35.6815V16.8713C5.1864 16.7299 5.24255 16.5944 5.34249 16.4944C5.44243 16.3945 5.57799 16.3383 5.71933 16.3383H18.6051C18.7464 16.3383 18.882 16.3945 18.9819 16.4944C19.0819 16.5944 19.138 16.7299 19.138 16.8713V35.6815C19.138 35.8229 19.0819 35.9584 18.9819 36.0584C18.882 36.1583 18.7464 36.2145 18.6051 36.2145ZM18.0722 17.4042H6.25226V35.1486H18.0722V17.4042ZM18.9425 39.3912H5.58901C5.44767 39.3912 5.31212 39.4474 5.21217 39.5473C5.11223 39.6473 5.05608 39.7828 5.05608 39.9242V47.4642C5.05608 47.6055 5.11223 47.7411 5.21217 47.841C5.31212 47.941 5.44767 47.9971 5.58901 47.9971H18.9425C19.0839 47.9971 19.2194 47.941 19.3194 47.841C19.4193 47.7411 19.4755 47.6055 19.4755 47.4642V39.9242C19.4755 39.7828 19.4193 39.6473 19.3194 39.5473C19.2194 39.4474 19.0839 39.3912 18.9425 39.3912ZM18.4096 46.9313H6.12194V40.4571H18.4096V46.9313ZM44.3582 23.8484C41.3588 23.6453 38.5148 22.4399 36.283 20.4257C36.1849 20.3364 36.0571 20.287 35.9245 20.287C35.7919 20.287 35.6641 20.3364 35.566 20.4257C33.334 22.4397 30.4898 23.6451 27.4903 23.8484C27.3556 23.8577 27.2295 23.9177 27.1374 24.0164C27.0452 24.1151 26.994 24.2451 26.994 24.3801V30.4123L27.003 30.8966C27.0761 34.8623 29.1165 38.6081 32.4608 40.9166L35.6217 43.0982C35.7107 43.1597 35.8163 43.1926 35.9244 43.1926C36.0326 43.1926 36.1382 43.1597 36.2272 43.0982L39.3879 40.9167C42.7323 38.6082 44.7727 34.8596 44.846 30.8909L44.8548 30.4859V24.3801C44.8548 24.2451 44.8035 24.115 44.7113 24.0163C44.6192 23.9177 44.4929 23.8576 44.3582 23.8484ZM43.7804 30.8694C43.7133 34.4975 41.8449 37.9255 38.7824 40.0395L35.9245 42.0121L33.0663 40.0394C30.0037 37.9255 28.1354 34.5002 28.0686 30.8769L28.0597 30.4024L28.0599 24.8691C30.9575 24.5716 33.6982 23.4077 35.9245 21.5292C38.1505 23.4079 40.8913 24.5718 43.7889 24.8691L43.7891 30.4743L43.7804 30.8694ZM38.9038 28.7567H41.1958C41.3371 28.7567 41.4727 28.8129 41.5726 28.9128C41.6725 29.0128 41.7287 29.1483 41.7287 29.2897V34.1828C41.7287 34.3241 41.6725 34.4597 41.5726 34.5596C41.4727 34.6596 41.3371 34.7157 41.1958 34.7157H38.9038V37.0076C38.9038 37.149 38.8476 37.2845 38.7477 37.3845C38.6477 37.4844 38.5122 37.5406 38.3708 37.5406H33.4778C33.3365 37.5406 33.2009 37.4844 33.101 37.3845C33.001 37.2845 32.9449 37.149 32.9449 37.0076V34.7157H30.6529C30.5115 34.7157 30.376 34.6596 30.276 34.5596C30.1761 34.4597 30.1199 34.3241 30.1199 34.1828V29.2897C30.1199 29.1483 30.1761 29.0128 30.276 28.9128C30.376 28.8129 30.5115 28.7567 30.6529 28.7567H32.9449V26.4648C32.9449 26.3235 33.001 26.1879 33.101 26.088C33.2009 25.988 33.3365 25.9319 33.4778 25.9319H38.3708C38.5122 25.9319 38.6477 25.988 38.7477 26.088C38.8476 26.1879 38.9038 26.3235 38.9038 26.4648V28.7567ZM38.3708 33.6498H40.6628V29.8226H38.3708C38.3008 29.8226 38.2316 29.8088 38.1669 29.782C38.1022 29.7553 38.0435 29.716 37.994 29.6665C37.9445 29.617 37.9053 29.5583 37.8785 29.4936C37.8517 29.429 37.8379 29.3597 37.8379 29.2897V26.9977H34.0107V29.2897C34.0107 29.431 33.9546 29.5666 33.8546 29.6665C33.7547 29.7665 33.6191 29.8226 33.4778 29.8226H31.1858V33.6498H33.4778C33.6191 33.6498 33.7547 33.706 33.8546 33.8059C33.9546 33.9059 34.0107 34.0414 34.0107 34.1828V36.4747H37.8379V34.1828C37.8379 34.0414 37.8941 33.9059 37.994 33.8059C38.0939 33.706 38.2295 33.6498 38.3708 33.6498Z" fill="#2E78B4"/>
<path d="M46.9423 21.6796L47.2092 21.3817L47.209 21.3815L46.9423 21.6796ZM46.7494 21.5691L46.8716 21.1882L46.8716 21.1882L46.7494 21.5691ZM47.0733 21.8592L46.708 22.0223L46.7081 22.0223L47.0733 21.8592ZM47.1196 22.0766H47.5196V22.0766L47.1196 22.0766ZM47.1196 30.5104L47.5196 30.519V30.5104H47.1196ZM47.1104 30.94L46.7105 30.9314L46.7105 30.9326L47.1104 30.94ZM40.6745 42.7806L40.9016 43.1099L40.9018 43.1098L40.6745 42.7806ZM40.6494 42.7979L40.4224 42.4686L40.2494 42.5878V42.7979H40.6494ZM40.4933 52.8439L40.2105 52.561L40.2105 52.561L40.4933 52.8439ZM1.15609 52.8439L1.43894 52.561L1.43893 52.561L1.15609 52.8439ZM1.15609 1.15609L0.873248 0.873248L0.873248 0.873248L1.15609 1.15609ZM40.4933 1.15609L40.7762 0.873252L40.7762 0.873246L40.4933 1.15609ZM40.6494 20.6154H40.2494V20.8733L40.4844 20.9797L40.6494 20.6154ZM45.2852 21.615L45.2851 21.215H45.2851L45.2852 21.615ZM46.5283 21.5468L46.4847 21.1492L46.4846 21.1492L46.5283 21.5468ZM39.5836 51.9341V52.3341H39.9836L39.9836 51.9341H39.5836ZM2.06586 51.9341H1.66586V52.3341H2.06586V51.9341ZM39.5836 43.5336H39.9836V42.7715L39.3564 43.2044L39.5836 43.5336ZM36.2271 45.8502L36.4543 46.1794L36.4544 46.1794L36.2271 45.8502ZM35.6216 45.8502L35.3944 46.1794L35.3944 46.1794L35.6216 45.8502ZM31.1742 42.7805L30.947 43.1097L30.947 43.1097L31.1742 42.7805ZM24.7384 30.9382L25.1383 30.9309L25.1383 30.9309L24.7384 30.9382ZM24.729 30.4332H24.329L24.3291 30.4406L24.729 30.4332ZM24.729 22.0766L24.329 22.0765V22.0766H24.729ZM24.7754 21.8591L24.4102 21.6959L24.4102 21.6959L24.7754 21.8591ZM25.3206 21.5469L25.2766 21.9444L25.2768 21.9445L25.3206 21.5469ZM26.5636 21.615L26.5636 21.215H26.5636L26.5636 21.615ZM35.4928 17.1299L35.1689 16.8952L35.1689 16.8952L35.4928 17.1299ZM35.6821 16.9678L35.8639 17.3241L35.8639 17.3241L35.6821 16.9678ZM36.1666 16.9678L36.3485 16.6116L36.3485 16.6116L36.1666 16.9678ZM36.3559 17.1299L36.032 17.3645L36.0324 17.3651L36.3559 17.1299ZM39.5836 20.0606L39.3805 20.4052L39.9836 20.7605V20.0606H39.5836ZM39.5836 2.06586H39.9836V1.66586H39.5836V2.06586ZM2.06586 2.06586V1.66586H1.66586V2.06586H2.06586ZM46.0447 30.9186L45.6448 30.9099L45.6448 30.9112L46.0447 30.9186ZM40.0689 41.9033L40.2962 42.2325L40.2962 42.2325L40.0689 41.9033ZM46.0539 30.4988L46.4539 30.5075V30.4988L46.0539 30.4988ZM46.0537 22.657L46.4537 22.657L46.4537 22.2315L46.029 22.2578L46.0537 22.657ZM45.2853 22.6809L45.2852 22.2809L45.2839 22.2809L45.2853 22.6809ZM40.1165 21.5445L39.9474 21.907L40.1165 21.5445ZM35.9244 18.3141L36.2319 18.0582L35.9244 17.6889L35.617 18.0582L35.9244 18.3141ZM31.7324 21.5443L31.5633 21.1818L31.7324 21.5443ZM26.5637 22.6809L26.5651 22.2809H26.5637V22.6809ZM25.7949 22.6572L25.8196 22.2579L25.3949 22.2316L25.3949 22.6572L25.7949 22.6572ZM25.7948 30.4233L25.3947 30.4233L25.3948 30.4308L25.7948 30.4233ZM25.804 30.9185L26.2039 30.9111L26.2039 30.9111L25.804 30.9185ZM31.7798 41.9033L31.5526 42.2325L31.5526 42.2325L31.7798 41.9033ZM35.9244 44.764L35.6972 45.0932L35.9244 45.25L36.1516 45.0932L35.9244 44.764ZM24.5833 5.86214V5.46214H24.1833V5.86214H24.5833ZM35.7912 5.86214H36.1912V5.46214H35.7912V5.86214ZM24.5833 6.92799H24.1833V7.32799H24.5833V6.92799ZM35.7912 6.92799V7.32799H36.1912V6.92799H35.7912ZM24.5833 7.74945V7.34945H24.1833V7.74945H24.5833ZM35.7912 7.74945H36.1912V7.34945H35.7912V7.74945ZM24.5833 8.81531H24.1833V9.21531H24.5833V8.81531ZM35.7912 8.81531V9.21531H36.1912V8.81531H35.7912ZM35.7912 9.71712H36.1912V9.31712H35.7912V9.71712ZM24.5833 9.71712V9.31712H24.1833V9.71712H24.5833ZM35.7912 10.783V11.183H36.1912V10.783H35.7912ZM24.5833 10.783H24.1833V11.183H24.5833V10.783ZM24.5833 11.5478V11.1478H24.1833V11.5478H24.5833ZM35.7912 11.5478H36.1912V11.1478H35.7912V11.5478ZM24.5833 12.6137H24.1833V13.0137H24.5833V12.6137ZM35.7912 12.6137V13.0137H36.1912V12.6137H35.7912ZM5.34249 36.0584L5.62534 35.7755L5.62533 35.7755L5.34249 36.0584ZM5.34249 16.4944L5.62533 16.7773L5.62533 16.7773L5.34249 16.4944ZM18.9819 36.0584L18.6991 35.7755L18.6991 35.7755L18.9819 36.0584ZM6.25226 17.4042V17.0042H5.85226V17.4042H6.25226ZM18.0722 17.4042H18.4722V17.0042H18.0722V17.4042ZM6.25226 35.1486H5.85226V35.5486H6.25226V35.1486ZM18.0722 35.1486V35.5486H18.4722V35.1486H18.0722ZM5.21217 39.5473L4.92933 39.2645L4.92933 39.2645L5.21217 39.5473ZM5.21217 47.841L4.92933 48.1239L4.92933 48.1239L5.21217 47.841ZM19.3194 47.841L19.6022 48.1239L19.6022 48.1239L19.3194 47.841ZM19.3194 39.5473L19.6022 39.2645L19.6022 39.2645L19.3194 39.5473ZM6.12194 46.9313H5.72194V47.3313H6.12194V46.9313ZM18.4096 46.9313V47.3313H18.8096V46.9313H18.4096ZM6.12194 40.4571V40.0571H5.72194V40.4571H6.12194ZM18.4096 40.4571H18.8096V40.0571H18.4096V40.4571ZM36.283 20.4257L36.0139 20.7216L36.015 20.7226L36.283 20.4257ZM44.3582 23.8484L44.3855 23.4493L44.3852 23.4493L44.3582 23.8484ZM35.566 20.4257L35.834 20.7226L35.8351 20.7216L35.566 20.4257ZM27.4903 23.8484L27.4633 23.4493L27.4629 23.4493L27.4903 23.8484ZM27.1374 24.0164L26.845 23.7435L27.1374 24.0164ZM26.994 24.3801H27.394V24.3801L26.994 24.3801ZM26.994 30.4123H26.5939L26.5941 30.4197L26.994 30.4123ZM27.003 30.8966L27.4029 30.8893L27.4029 30.8892L27.003 30.8966ZM32.4608 40.9166L32.2336 41.2458L32.2336 41.2458L32.4608 40.9166ZM35.6217 43.0982L35.8489 42.769L35.8489 42.769L35.6217 43.0982ZM36.2272 43.0982L36 42.769L36 42.769L36.2272 43.0982ZM39.3879 40.9167L39.6152 41.2459L39.6152 41.2459L39.3879 40.9167ZM44.846 30.8909L44.4461 30.8823L44.4461 30.8835L44.846 30.8909ZM44.8548 30.4859L45.2548 30.4946V30.4859H44.8548ZM44.8548 24.3801L44.4548 24.3801V24.3801H44.8548ZM44.7113 24.0163L45.0037 23.7433L45.0037 23.7433L44.7113 24.0163ZM38.7824 40.0395L39.0096 40.3687L39.0096 40.3687L38.7824 40.0395ZM43.7804 30.8694L43.3805 30.8607L43.3805 30.862L43.7804 30.8694ZM35.9245 42.0121L35.6973 42.3413L35.9245 42.4981L36.1517 42.3413L35.9245 42.0121ZM33.0663 40.0394L32.8391 40.3686L32.8391 40.3686L33.0663 40.0394ZM28.0686 30.8769L28.4685 30.8695L28.4685 30.8695L28.0686 30.8769ZM28.0597 30.4024L27.6597 30.4024L27.6598 30.4099L28.0597 30.4024ZM28.0599 24.8691L28.019 24.4712L27.6599 24.5081L27.6599 24.8691L28.0599 24.8691ZM35.9245 21.5292L36.1824 21.2235L35.9245 21.0058L35.6665 21.2235L35.9245 21.5292ZM43.7889 24.8691L44.1889 24.8691L44.1889 24.508L43.8298 24.4712L43.7889 24.8691ZM43.7891 30.4743L44.1891 30.4831V30.4743L43.7891 30.4743ZM38.9038 28.7567H38.5038V29.1567H38.9038V28.7567ZM41.5726 28.9128L41.8554 28.63L41.8554 28.63L41.5726 28.9128ZM38.9038 34.7157V34.3157H38.5038V34.7157H38.9038ZM38.7477 37.3845L39.0305 37.6673L39.0305 37.6673L38.7477 37.3845ZM33.101 37.3845L32.8181 37.6673L32.8181 37.6673L33.101 37.3845ZM32.9449 34.7157H33.3449V34.3157H32.9449V34.7157ZM30.276 34.5596L30.5589 34.2768H30.5589L30.276 34.5596ZM30.276 28.9128L29.9932 28.63L29.9932 28.63L30.276 28.9128ZM32.9449 28.7567V29.1567H33.3449V28.7567H32.9449ZM33.101 26.088L32.8181 25.8051L32.8181 25.8051L33.101 26.088ZM38.7477 26.088L39.0305 25.8051V25.8051L38.7477 26.088ZM40.6628 33.6498V34.0498H41.0628V33.6498H40.6628ZM40.6628 29.8226H41.0628V29.4226H40.6628V29.8226ZM38.1669 29.782L38.32 29.4125L38.32 29.4125L38.1669 29.782ZM37.994 29.6665L38.2768 29.3837L38.2768 29.3837L37.994 29.6665ZM37.8785 29.4936L37.5089 29.6467L37.5089 29.6467L37.8785 29.4936ZM37.8379 26.9977H38.2379V26.5977H37.8379V26.9977ZM34.0107 26.9977V26.5977H33.6107V26.9977H34.0107ZM33.8546 29.6665L34.1375 29.9494L34.1375 29.9494L33.8546 29.6665ZM31.1858 29.8226V29.4226H30.7858V29.8226H31.1858ZM31.1858 33.6498H30.7858V34.0498H31.1858V33.6498ZM34.0107 36.4747H33.6107V36.8747H34.0107V36.4747ZM37.8379 36.4747V36.8747H38.2379V36.4747H37.8379ZM37.994 33.8059L38.2768 34.0888L38.2768 34.0888L37.994 33.8059ZM47.209 21.3815C47.1113 21.2941 46.9964 21.2283 46.8716 21.1882L46.6273 21.95C46.6451 21.9557 46.6616 21.9652 46.6756 21.9777L47.209 21.3815ZM47.4385 21.6961C47.385 21.5763 47.3069 21.4692 47.2092 21.3817L46.6753 21.9775C46.6893 21.99 46.7004 22.0052 46.708 22.0223L47.4385 21.6961ZM47.5196 22.0766C47.5196 21.9455 47.492 21.8158 47.4385 21.6961L46.7081 22.0223C46.7157 22.0394 46.7196 22.0579 46.7196 22.0766L47.5196 22.0766ZM47.5196 30.5104V22.0766H46.7196V30.5104H47.5196ZM47.5103 30.9486L47.5195 30.519L46.7197 30.5018L46.7105 30.9314L47.5103 30.9486ZM40.9018 43.1098C44.9484 40.3166 47.4212 35.7711 47.5103 30.9474L46.7105 30.9326C46.6262 35.4923 44.2871 39.8009 40.4473 42.4514L40.9018 43.1098ZM40.8765 43.1272L40.9016 43.1099L40.4475 42.4512L40.4224 42.4686L40.8765 43.1272ZM41.0494 52.4671V42.7979H40.2494V52.4671H41.0494ZM40.7762 53.1267C40.9511 52.9518 41.0494 52.7145 41.0494 52.4671H40.2494C40.2494 52.5023 40.2354 52.5361 40.2105 52.561L40.7762 53.1267ZM40.1165 53.4C40.3639 53.4 40.6012 53.3017 40.7762 53.1267L40.2105 52.561C40.1855 52.586 40.1517 52.6 40.1165 52.6V53.4ZM1.53293 53.4H40.1165V52.6H1.53293V53.4ZM0.873246 53.1267C1.0482 53.3017 1.28549 53.4 1.53293 53.4V52.6C1.49768 52.6 1.46387 52.586 1.43894 52.561L0.873246 53.1267ZM0.6 52.4671C0.6 52.7145 0.698291 52.9518 0.873251 53.1267L1.43893 52.561C1.414 52.5361 1.4 52.5023 1.4 52.4671H0.6ZM0.6 1.53293V52.4671H1.4V1.53293H0.6ZM0.873248 0.873248C0.698289 1.04821 0.6 1.2855 0.6 1.53293H1.4C1.4 1.49767 1.414 1.46386 1.43893 1.43893L0.873248 0.873248ZM1.53293 0.6C1.2855 0.6 1.04821 0.69829 0.873248 0.873248L1.43893 1.43893C1.46386 1.41401 1.49767 1.4 1.53293 1.4V0.6ZM40.1165 0.6H1.53293V1.4H40.1165V0.6ZM40.7762 0.873246C40.6012 0.698289 40.3639 0.6 40.1165 0.6V1.4C40.1518 1.4 40.1856 1.41401 40.2105 1.43894L40.7762 0.873246ZM41.0494 1.53293C41.0494 1.28551 40.9511 1.04821 40.7762 0.873252L40.2105 1.43893C40.2354 1.46386 40.2494 1.49767 40.2494 1.53293H41.0494ZM41.0494 20.6154V1.53293H40.2494V20.6154H41.0494ZM45.2851 21.215C43.7432 21.2156 42.219 20.8869 40.8144 20.251L40.4844 20.9797C41.9928 21.6627 43.6296 22.0157 45.2854 22.015L45.2851 21.215ZM46.4846 21.1492C46.0863 21.1929 45.6858 21.2149 45.2851 21.215L45.2854 22.015C45.7152 22.0149 46.1447 21.9913 46.5719 21.9444L46.4846 21.1492ZM46.8716 21.1882C46.7468 21.1482 46.615 21.1349 46.4847 21.1492L46.5719 21.9444C46.5905 21.9424 46.6094 21.9443 46.6273 21.95L46.8716 21.1882ZM39.5836 51.5341H2.06586V52.3341H39.5836V51.5341ZM39.1836 43.5336L39.1836 51.9341H39.9836L39.9836 43.5336H39.1836ZM36.4544 46.1794L39.8108 43.8628L39.3564 43.2044L35.9999 45.521L36.4544 46.1794ZM35.9244 46.3445C36.1137 46.3445 36.2985 46.2869 36.4543 46.1794L36 45.521C35.9777 45.5363 35.9514 45.5445 35.9244 45.5445V46.3445ZM35.3944 46.1794C35.5502 46.2869 35.7351 46.3445 35.9244 46.3445V45.5445C35.8974 45.5445 35.871 45.5363 35.8488 45.521L35.3944 46.1794ZM30.947 43.1097L35.3944 46.1794L35.8488 45.521L31.4014 42.4513L30.947 43.1097ZM24.3384 30.9456C24.4274 35.7709 26.9002 40.3164 30.947 43.1097L31.4014 42.4513C27.5615 39.8008 25.2224 35.4922 25.1383 30.9309L24.3384 30.9456ZM24.3291 30.4406L24.3384 30.9456L25.1383 30.9309L25.129 30.4258L24.3291 30.4406ZM24.329 22.0766V30.4332H25.129V22.0766H24.329ZM24.4102 21.6959C24.3567 21.8157 24.329 21.9454 24.329 22.0765L25.129 22.0766C25.129 22.0579 25.133 22.0394 25.1406 22.0223L24.4102 21.6959ZM24.6396 21.3815C24.5419 21.469 24.4637 21.5762 24.4102 21.6959L25.1406 22.0223C25.1482 22.0053 25.1594 21.99 25.1733 21.9775L24.6396 21.3815ZM24.9773 21.1881C24.8524 21.2281 24.7374 21.294 24.6396 21.3815L25.1733 21.9775C25.1872 21.9651 25.2036 21.9557 25.2214 21.95L24.9773 21.1881ZM25.3646 21.1493C25.2342 21.1349 25.1023 21.1481 24.9773 21.1881L25.2214 21.95C25.2392 21.9443 25.258 21.9424 25.2766 21.9444L25.3646 21.1493ZM26.5636 21.215C26.163 21.2151 25.7626 21.1931 25.3644 21.1493L25.2768 21.9445C25.7042 21.9915 26.1338 22.0151 26.5637 22.015L26.5636 21.215ZM35.1689 16.8952C33.2117 19.5966 29.9958 21.2149 26.5636 21.215L26.5637 22.015C30.2445 22.0149 33.7046 20.2798 35.8167 17.3645L35.1689 16.8952ZM35.5003 16.6116C35.3689 16.6786 35.2554 16.7758 35.1689 16.8952L35.8167 17.3645C35.829 17.3475 35.8452 17.3337 35.8639 17.3241L35.5003 16.6116ZM35.9244 16.5096C35.7769 16.5096 35.6316 16.5445 35.5003 16.6116L35.8639 17.3241C35.8826 17.3146 35.9034 17.3096 35.9244 17.3096V16.5096ZM36.3485 16.6116C36.2171 16.5445 36.0718 16.5096 35.9244 16.5096V17.3096C35.9454 17.3096 35.9661 17.3146 35.9848 17.3241L36.3485 16.6116ZM36.6799 16.8952C36.5934 16.7758 36.4798 16.6786 36.3485 16.6116L35.9848 17.3241C36.0035 17.3337 36.0197 17.3475 36.032 17.3645L36.6799 16.8952ZM39.7866 19.716C38.5686 18.9983 37.511 18.038 36.6794 16.8946L36.0324 17.3651C36.9284 18.5971 38.068 19.6319 39.3805 20.4052L39.7866 19.716ZM39.1836 2.06586V20.0606H39.9836V2.06586H39.1836ZM2.06586 2.46586H39.5836V1.66586H2.06586V2.46586ZM2.46586 51.9341V2.06586H1.66586V51.9341H2.46586ZM45.6448 30.9112C45.5668 35.13 43.3999 39.1181 39.8417 41.5742L40.2962 42.2325C44.0608 39.634 46.3618 35.4092 46.4447 30.926L45.6448 30.9112ZM45.654 30.4901L45.6448 30.9099L46.4446 30.9273L46.4538 30.5075L45.654 30.4901ZM45.6537 22.657L45.6539 30.4988L46.4539 30.4988L46.4537 22.657L45.6537 22.657ZM45.2854 23.0809C45.5496 23.0808 45.8146 23.0726 46.0784 23.0563L46.029 22.2578C45.7815 22.2731 45.5329 22.2808 45.2852 22.2809L45.2854 23.0809ZM39.9474 21.907C41.619 22.6868 43.4422 23.0876 45.2868 23.0809L45.2839 22.2809C43.5572 22.2872 41.8504 21.9119 40.2856 21.182L39.9474 21.907ZM35.617 18.5701C36.7971 19.9877 38.2758 21.1272 39.9474 21.907L40.2856 21.182C38.7208 20.452 37.3365 19.3853 36.2319 18.0582L35.617 18.5701ZM31.9015 21.9068C33.5731 21.127 35.0517 19.9876 36.2318 18.5701L35.617 18.0582C34.5123 19.3852 33.1281 20.4518 31.5633 21.1818L31.9015 21.9068ZM26.5623 23.0809C28.4068 23.0875 30.2299 22.6866 31.9015 21.9068L31.5633 21.1818C29.9985 21.9118 28.2918 22.2871 26.5651 22.2809L26.5623 23.0809ZM25.7702 23.0564C26.034 23.0727 26.2992 23.0809 26.5637 23.0809V22.2809C26.3156 22.2809 26.0669 22.2732 25.8196 22.2579L25.7702 23.0564ZM26.1948 30.4233L26.1949 22.6572L25.3949 22.6572L25.3948 30.4233L26.1948 30.4233ZM26.2039 30.9111L26.1947 30.4159L25.3948 30.4308L25.4041 30.926L26.2039 30.9111ZM32.007 41.5742C28.4487 39.118 26.2818 35.1299 26.2039 30.9111L25.4041 30.9259C25.4868 35.4091 27.7878 39.6339 31.5526 42.2325L32.007 41.5742ZM36.1516 44.4348L32.007 41.5741L31.5526 42.2325L35.6972 45.0932L36.1516 44.4348ZM39.8417 41.5741L35.6972 44.4348L36.1516 45.0932L40.2962 42.2325L39.8417 41.5741ZM24.5833 6.26214H35.7912V5.46214H24.5833V6.26214ZM24.9833 6.92799V5.86214H24.1833V6.92799H24.9833ZM35.7912 6.52799H24.5833V7.32799H35.7912V6.52799ZM35.3912 5.86214V6.92799H36.1912V5.86214H35.3912ZM24.5833 8.14945H35.7912V7.34945H24.5833V8.14945ZM24.9833 8.81531V7.74945H24.1833V8.81531H24.9833ZM35.7912 8.41531H24.5833V9.21531H35.7912V8.41531ZM35.3912 7.74945V8.81531H36.1912V7.74945H35.3912ZM35.7912 9.31712H24.5833V10.1171H35.7912V9.31712ZM36.1912 10.783V9.71712H35.3912V10.783H36.1912ZM24.5833 11.183H35.7912V10.383H24.5833V11.183ZM24.1833 9.71712V10.783H24.9833V9.71712H24.1833ZM24.5833 11.9478H35.7912V11.1478H24.5833V11.9478ZM24.9833 12.6137V11.5478H24.1833V12.6137H24.9833ZM35.7912 12.2137H24.5833V13.0137H35.7912V12.2137ZM35.3912 11.5478V12.6137H36.1912V11.5478H35.3912ZM5.71933 36.6145H18.6051V35.8145H5.71933V36.6145ZM5.05965 36.3412C5.2346 36.5162 5.4719 36.6145 5.71933 36.6145V35.8145C5.68408 35.8145 5.65027 35.8004 5.62534 35.7755L5.05965 36.3412ZM4.7864 35.6815C4.7864 35.929 4.88469 36.1662 5.05965 36.3412L5.62533 35.7755C5.60041 35.7506 5.5864 35.7168 5.5864 35.6815H4.7864ZM4.7864 16.8713V35.6815H5.5864V16.8713H4.7864ZM5.05965 16.2116C4.88469 16.3865 4.7864 16.6238 4.7864 16.8713H5.5864C5.5864 16.836 5.60041 16.8022 5.62533 16.7773L5.05965 16.2116ZM5.71933 15.9383C5.4719 15.9383 5.2346 16.0366 5.05965 16.2116L5.62533 16.7773C5.65027 16.7523 5.68408 16.7383 5.71933 16.7383V15.9383ZM18.6051 15.9383H5.71933V16.7383H18.6051V15.9383ZM19.2648 16.2116C19.0898 16.0366 18.8525 15.9383 18.6051 15.9383V16.7383C18.6404 16.7383 18.6742 16.7523 18.6991 16.7773L19.2648 16.2116ZM19.538 16.8713C19.538 16.6238 19.4397 16.3865 19.2648 16.2116L18.6991 16.7773C18.724 16.8022 18.738 16.836 18.738 16.8713H19.538ZM19.538 35.6815V16.8713H18.738V35.6815H19.538ZM19.2648 36.3412C19.4397 36.1663 19.538 35.929 19.538 35.6815H18.738C18.738 35.7168 18.724 35.7506 18.6991 35.7755L19.2648 36.3412ZM18.6051 36.6145C18.8525 36.6145 19.0898 36.5162 19.2648 36.3412L18.6991 35.7755C18.6742 35.8004 18.6404 35.8145 18.6051 35.8145V36.6145ZM6.25226 17.8042H18.0722V17.0042H6.25226V17.8042ZM6.65226 35.1486V17.4042H5.85226V35.1486H6.65226ZM18.0722 34.7486H6.25226V35.5486H18.0722V34.7486ZM17.6722 17.4042V35.1486H18.4722V17.4042H17.6722ZM5.58901 39.7912H18.9425V38.9912H5.58901V39.7912ZM5.49501 39.8302C5.51994 39.8052 5.55376 39.7912 5.58901 39.7912V38.9912C5.34158 38.9912 5.10429 39.0895 4.92933 39.2645L5.49501 39.8302ZM5.45608 39.9242C5.45608 39.8889 5.47009 39.8551 5.49502 39.8302L4.92933 39.2645C4.75437 39.4394 4.65608 39.6767 4.65608 39.9242H5.45608ZM5.45608 47.4642V39.9242H4.65608V47.4642H5.45608ZM5.49502 47.5582C5.47009 47.5333 5.45608 47.4995 5.45608 47.4642H4.65608C4.65608 47.7116 4.75437 47.9489 4.92933 48.1239L5.49502 47.5582ZM5.58901 47.5971C5.55376 47.5971 5.51994 47.5831 5.49501 47.5582L4.92933 48.1239C5.10429 48.2988 5.34158 48.3971 5.58901 48.3971V47.5971ZM18.9425 47.5971H5.58901V48.3971H18.9425V47.5971ZM19.0365 47.5582C19.0116 47.5831 18.9778 47.5971 18.9425 47.5971V48.3971C19.1899 48.3971 19.4272 48.2988 19.6022 48.1239L19.0365 47.5582ZM19.0755 47.4642C19.0755 47.4995 19.0614 47.5333 19.0365 47.5582L19.6022 48.1239C19.7772 47.9489 19.8755 47.7116 19.8755 47.4642H19.0755ZM19.0755 39.9242V47.4642H19.8755V39.9242H19.0755ZM19.0365 39.8302C19.0614 39.8551 19.0755 39.8889 19.0755 39.9242H19.8755C19.8755 39.6767 19.7772 39.4394 19.6022 39.2645L19.0365 39.8302ZM18.9425 39.7912C18.9778 39.7912 19.0116 39.8052 19.0365 39.8302L19.6022 39.2645C19.4272 39.0895 19.1899 38.9912 18.9425 38.9912V39.7912ZM6.12194 47.3313H18.4096V46.5313H6.12194V47.3313ZM5.72194 40.4571V46.9313H6.52194V40.4571H5.72194ZM18.4096 40.0571H6.12194V40.8571H18.4096V40.0571ZM18.8096 46.9313V40.4571H18.0096V46.9313H18.8096ZM36.015 20.7226C38.3134 22.7969 41.2423 24.0384 44.3312 24.2475L44.3852 23.4493C41.4753 23.2523 38.7162 22.0828 36.551 20.1287L36.015 20.7226ZM35.9245 20.687C35.9576 20.687 35.9894 20.6993 36.0139 20.7216L36.5522 20.1298C36.3804 19.9736 36.1566 19.887 35.9245 19.887V20.687ZM35.8351 20.7216C35.8596 20.6993 35.8914 20.687 35.9245 20.687V19.887C35.6924 19.887 35.4686 19.9736 35.2968 20.1298L35.8351 20.7216ZM27.5174 24.2475C30.6064 24.0382 33.5353 22.7968 35.834 20.7226L35.298 20.1287C33.1326 22.0826 30.3733 23.2521 27.4633 23.4493L27.5174 24.2475ZM27.4297 24.2894C27.4527 24.2647 27.4842 24.2498 27.5178 24.2475L27.4629 23.4493C27.2271 23.4656 27.0062 23.5707 26.845 23.7435L27.4297 24.2894ZM27.394 24.3801C27.394 24.3464 27.4068 24.314 27.4297 24.2894L26.845 23.7435C26.6837 23.9162 26.594 24.1438 26.594 24.3801L27.394 24.3801ZM27.394 30.4123V24.3801H26.594V30.4123H27.394ZM27.4029 30.8892L27.3939 30.4049L26.5941 30.4197L26.603 30.904L27.4029 30.8892ZM32.688 40.5874C29.4466 38.35 27.4736 34.7224 27.4029 30.8893L26.603 30.904C26.6786 35.0022 28.7863 38.8662 32.2336 41.2458L32.688 40.5874ZM35.8489 42.769L32.688 40.5874L32.2336 41.2458L35.3945 43.4274L35.8489 42.769ZM35.9244 42.7926C35.8975 42.7926 35.8711 42.7844 35.8489 42.769L35.3944 43.4274C35.5502 43.535 35.7351 43.5926 35.9244 43.5926V42.7926ZM36 42.769C35.9777 42.7844 35.9514 42.7926 35.9244 42.7926V43.5926C36.1138 43.5926 36.2986 43.535 36.4544 43.4274L36 42.769ZM39.1607 40.5875L36 42.769L36.4544 43.4274L39.6152 41.2459L39.1607 40.5875ZM44.4461 30.8835C44.3752 34.7198 42.402 38.3502 39.1607 40.5875L39.6152 41.2459C43.0626 38.8663 45.1701 34.9993 45.246 30.8983L44.4461 30.8835ZM44.4549 30.4773L44.4461 30.8823L45.2459 30.8995L45.2547 30.4946L44.4549 30.4773ZM44.4548 24.3801V30.4859H45.2548V24.3801H44.4548ZM44.419 24.2894C44.442 24.314 44.4548 24.3464 44.4548 24.3801L45.2548 24.3801C45.2548 24.1437 45.165 23.9161 45.0037 23.7433L44.419 24.2894ZM44.3309 24.2475C44.3645 24.2498 44.396 24.2647 44.419 24.2894L45.0037 23.7433C44.8423 23.5706 44.6214 23.4655 44.3855 23.4493L44.3309 24.2475ZM39.0096 40.3687C42.175 38.1837 44.1107 34.6375 44.1803 30.8768L43.3805 30.862C43.3158 34.3574 41.5148 37.6673 38.5551 39.7103L39.0096 40.3687ZM36.1517 42.3413L39.0096 40.3687L38.5552 39.7103L35.6972 41.6829L36.1517 42.3413ZM32.8391 40.3686L35.6973 42.3413L36.1517 41.6829L33.2936 39.7102L32.8391 40.3686ZM27.6687 30.8843C27.7379 34.6405 29.6738 38.1838 32.8391 40.3686L33.2936 39.7102C30.3336 37.6671 28.5329 34.36 28.4685 30.8695L27.6687 30.8843ZM27.6598 30.4099L27.6687 30.8844L28.4685 30.8695L28.4597 30.3949L27.6598 30.4099ZM27.6599 24.8691L27.6597 30.4024L28.4597 30.4024L28.4599 24.8691L27.6599 24.8691ZM35.6665 21.2235C33.5017 23.0502 30.8367 24.1819 28.019 24.4712L28.1007 25.267C31.0784 24.9613 33.8948 23.7653 36.1824 21.8349L35.6665 21.2235ZM43.8298 24.4712C41.0121 24.1821 38.347 23.0503 36.1824 21.2235L35.6665 21.8349C37.954 23.7654 40.7704 24.9615 43.7481 25.267L43.8298 24.4712ZM44.1891 30.4743L44.1889 24.8691L43.3889 24.8691L43.3891 30.4743L44.1891 30.4743ZM44.1803 30.8782L44.189 30.4831L43.3892 30.4655L43.3805 30.8607L44.1803 30.8782ZM41.1958 28.3567H38.9038V29.1567H41.1958V28.3567ZM41.8554 28.63C41.6805 28.455 41.4432 28.3567 41.1958 28.3567V29.1567C41.231 29.1567 41.2648 29.1708 41.2898 29.1957L41.8554 28.63ZM42.1287 29.2897C42.1287 29.0422 42.0304 28.805 41.8554 28.63L41.2898 29.1957C41.3147 29.2206 41.3287 29.2544 41.3287 29.2897H42.1287ZM42.1287 34.1828V29.2897H41.3287V34.1828H42.1287ZM41.8554 34.8425C42.0304 34.6675 42.1287 34.4302 42.1287 34.1828H41.3287C41.3287 34.218 41.3147 34.2518 41.2898 34.2768L41.8554 34.8425ZM41.1958 35.1157C41.4432 35.1157 41.6805 35.0174 41.8554 34.8425L41.2898 34.2768C41.2648 34.3017 41.231 34.3157 41.1958 34.3157V35.1157ZM38.9038 35.1157H41.1958V34.3157H38.9038V35.1157ZM39.3038 37.0076V34.7157H38.5038V37.0076H39.3038ZM39.0305 37.6673C39.2055 37.4924 39.3038 37.2551 39.3038 37.0076H38.5038C38.5038 37.0429 38.4898 37.0767 38.4648 37.1016L39.0305 37.6673ZM38.3708 37.9406C38.6183 37.9406 38.8556 37.8423 39.0305 37.6673L38.4648 37.1016C38.4399 37.1266 38.4061 37.1406 38.3708 37.1406V37.9406ZM33.4778 37.9406H38.3708V37.1406H33.4778V37.9406ZM32.8181 37.6673C32.9931 37.8423 33.2304 37.9406 33.4778 37.9406V37.1406C33.4426 37.1406 33.4087 37.1266 33.3838 37.1016L32.8181 37.6673ZM32.5449 37.0076C32.5449 37.2551 32.6432 37.4924 32.8181 37.6673L33.3838 37.1016C33.3589 37.0767 33.3449 37.0429 33.3449 37.0076H32.5449ZM32.5449 34.7157V37.0076H33.3449V34.7157H32.5449ZM30.6529 35.1157H32.9449V34.3157H30.6529V35.1157ZM29.9932 34.8425C30.1682 35.0174 30.4054 35.1157 30.6529 35.1157V34.3157C30.6176 34.3157 30.5838 34.3017 30.5589 34.2768L29.9932 34.8425ZM29.7199 34.1828C29.7199 34.4302 29.8182 34.6675 29.9932 34.8425L30.5589 34.2768C30.534 34.2518 30.5199 34.218 30.5199 34.1828H29.7199ZM29.7199 29.2897V34.1828H30.5199V29.2897H29.7199ZM29.9932 28.63C29.8182 28.805 29.7199 29.0423 29.7199 29.2897H30.5199C30.5199 29.2544 30.534 29.2206 30.5589 29.1957L29.9932 28.63ZM30.6529 28.3567C30.4054 28.3567 30.1682 28.455 29.9932 28.63L30.5589 29.1957C30.5838 29.1708 30.6176 29.1567 30.6529 29.1567V28.3567ZM32.9449 28.3567H30.6529V29.1567H32.9449V28.3567ZM32.5449 26.4648V28.7567H33.3449V26.4648H32.5449ZM32.8181 25.8051C32.6432 25.9801 32.5449 26.2174 32.5449 26.4648H33.3449C33.3449 26.4296 33.3589 26.3957 33.3838 26.3708L32.8181 25.8051ZM33.4778 25.5319C33.2304 25.5319 32.9931 25.6302 32.8181 25.8051L33.3838 26.3708C33.4087 26.3459 33.4426 26.3319 33.4778 26.3319V25.5319ZM38.3708 25.5319H33.4778V26.3319H38.3708V25.5319ZM39.0305 25.8051C38.8556 25.6302 38.6183 25.5319 38.3708 25.5319V26.3319C38.4061 26.3319 38.4399 26.3459 38.4648 26.3708L39.0305 25.8051ZM39.3038 26.4648C39.3038 26.2174 39.2055 25.9801 39.0305 25.8051L38.4648 26.3708C38.4898 26.3957 38.5038 26.4296 38.5038 26.4648H39.3038ZM39.3038 28.7567V26.4648H38.5038V28.7567H39.3038ZM40.6628 33.2498H38.3708V34.0498H40.6628V33.2498ZM40.2628 29.8226V33.6498H41.0628V29.8226H40.2628ZM38.3708 30.2226H40.6628V29.4226H38.3708V30.2226ZM38.0138 30.1516C38.127 30.1985 38.2483 30.2226 38.3708 30.2226V29.4226C38.3534 29.4226 38.3361 29.4192 38.32 29.4125L38.0138 30.1516ZM37.7112 29.9494C37.7978 30.036 37.9006 30.1047 38.0138 30.1516L38.32 29.4125C38.3038 29.4058 38.2892 29.396 38.2768 29.3837L37.7112 29.9494ZM37.5089 29.6467C37.5558 29.7599 37.6245 29.8627 37.7112 29.9494L38.2768 29.3837C38.2645 29.3713 38.2547 29.3567 38.248 29.3405L37.5089 29.6467ZM37.4379 29.2897C37.4379 29.4122 37.462 29.5335 37.5089 29.6467L38.248 29.3406C38.2413 29.3244 38.2379 29.3071 38.2379 29.2897H37.4379ZM37.4379 26.9977V29.2897H38.2379V26.9977H37.4379ZM34.0107 27.3977H37.8379V26.5977H34.0107V27.3977ZM34.4107 29.2897V26.9977H33.6107V29.2897H34.4107ZM34.1375 29.9494C34.3124 29.7744 34.4107 29.5371 34.4107 29.2897H33.6107C33.6107 29.3249 33.5967 29.3587 33.5718 29.3837L34.1375 29.9494ZM33.4778 30.2226C33.7252 30.2226 33.9625 30.1243 34.1375 29.9494L33.5718 29.3837C33.5469 29.4086 33.5131 29.4226 33.4778 29.4226V30.2226ZM31.1858 30.2226H33.4778V29.4226H31.1858V30.2226ZM31.5858 33.6498V29.8226H30.7858V33.6498H31.5858ZM33.4778 33.2498H31.1858V34.0498H33.4778V33.2498ZM34.1375 33.5231C33.9625 33.3481 33.7252 33.2498 33.4778 33.2498V34.0498C33.5131 34.0498 33.5469 34.0639 33.5718 34.0888L34.1375 33.5231ZM34.4107 34.1828C34.4107 33.9353 34.3124 33.6981 34.1375 33.5231L33.5718 34.0888C33.5967 34.1137 33.6107 34.1475 33.6107 34.1828H34.4107ZM34.4107 36.4747V34.1828H33.6107V36.4747H34.4107ZM37.8379 36.0747H34.0107V36.8747H37.8379V36.0747ZM37.4379 34.1828V36.4747H38.2379V34.1828H37.4379ZM37.7112 33.5231C37.5362 33.698 37.4379 33.9353 37.4379 34.1828H38.2379C38.2379 34.1475 38.2519 34.1137 38.2768 34.0888L37.7112 33.5231ZM38.3708 33.2498C38.1234 33.2498 37.8861 33.3481 37.7112 33.5231L38.2768 34.0888C38.3018 34.0639 38.3356 34.0498 38.3708 34.0498V33.2498Z" fill="#2E78B4" mask="url(#path-1-outside-1)"/>
</svg>
