<svg width="46" height="37" viewBox="0 0 46 37" fill="none" xmlns="http://www.w3.org/2000/svg">
<path d="M41.4551 24.0762C41.4551 24.0762 36.1813 36.6875 23.1114 36.6875C10.0414 36.6875 4.76758 24.0762 4.76758 24.0762C4.76758 24.0762 14.1688 26.3691 22.8821 26.3691C31.5954 26.3691 41.4551 24.0762 41.4551 24.0762Z" fill="#2E78B4"/>
<path d="M44.4359 10.3184C34.8054 7.33751 27.2386 0 23.1112 0C18.9839 0 11.4171 7.33751 1.78659 10.3184C0.181513 10.777 -0.50638 12.6114 0.41081 13.9871C2.47449 16.7387 4.76746 16.968 4.76746 20.1782C4.76746 20.1782 13.9394 22.4711 23.1112 22.4711C32.2831 22.4711 41.455 20.1782 41.455 20.1782C41.455 16.968 43.748 16.7387 45.5824 13.7578C46.4996 12.6114 45.8117 10.777 44.4359 10.3184ZM23.1112 18.3438C20.589 18.3438 18.5253 13.9871 18.5253 11.4649C18.5253 11.4649 20.589 9.17189 23.1112 9.17189C25.6335 9.17189 27.6972 11.4649 27.6972 11.4649C27.6972 13.9871 25.6335 18.3438 23.1112 18.3438Z" fill="#2E78B4"/>
</svg>
